<?xml version="1.0" encoding="UTF-8" standalone="no"?>
<svg
   xmlns:dc="http://purl.org/dc/elements/1.1/"
   xmlns:cc="http://creativecommons.org/ns#"
   xmlns:rdf="http://www.w3.org/1999/02/22-rdf-syntax-ns#"
   xmlns:svg="http://www.w3.org/2000/svg"
   xmlns="http://www.w3.org/2000/svg"
   viewBox="0 0 793.70667 1122.52"
   height="897"
   width="1920"
   xml:space="preserve"
   id="svg2"
   version="1.1"><metadata
     id="metadata8"><rdf:RDF><cc:Work
         rdf:about=""><dc:format>image/svg+xml</dc:format><dc:type
           rdf:resource="http://purl.org/dc/dcmitype/StillImage" /></cc:Work></rdf:RDF></metadata><defs
     id="defs6"><clipPath
       id="clipPath18"
       clipPathUnits="userSpaceOnUse"><path
         id="path16"
         d="M 0,841.89 H 595.28 V 0 H 0 Z" /></clipPath><clipPath
       id="clipPath26"
       clipPathUnits="userSpaceOnUse"><path
         id="path24"
         d="M -87.435,843.435 H 685.093 V -3.09332 H -87.435 Z" /></clipPath></defs><g
     transform="matrix(1.3333333,0,0,-1.3333333,0,1122.52)"
     id="g10"><g
       id="g12"><g
         clip-path="url(#clipPath18)"
         id="g14"><g
           id="g20"><g
             id="g22" /><g
             id="g426"><g
               id="g424"
               clip-path="url(#clipPath26)"><g
                 id="g30"
                 transform="translate(-87,211)"><path
                   id="path28"
                   style="fill:#fefefe;fill-opacity:1;fill-rule:nonzero;stroke:none"
                   d="m 0,0 v 10 c 1.624,1.455 3.641,1.413 5.64,1.541 16.103,1.034 32.2,1.672 48.308,-0.003 2.964,-0.308 5.976,-0.369 8.93,0.181 1.813,0.654 2.929,2.067 3.814,3.672 4.044,7.331 8.45,14.455 12.479,21.792 4.855,8.482 9.848,16.886 14.714,25.361 2.708,5.529 6.233,10.591 9.166,15.997 1.248,2.302 1.4,4.314 0.069,6.541 -2.128,3.562 -3.981,7.286 -6.328,10.724 -7.637,11.712 -13.701,24.32 -20.793,36.341 -2.956,5.01 -6.065,9.936 -8.751,15.099 -1.628,3.13 -3.926,4.609 -7.572,4.485 C 52.7,151.496 45.713,151.828 38.724,151.515 26.968,151.479 15.221,151.213 3.473,151.631 2.155,151.682 0.984,152.106 0,153 v 10 c 0.909,0.784 1.965,1.373 3.152,1.348 9.457,-0.204 18.795,1.749 28.366,0.69 10.384,-1.149 20.912,-0.802 31.361,-0.318 1.813,0.654 2.922,2.071 3.815,3.672 4.082,7.312 8.577,14.387 12.488,21.796 4.726,7.986 9.386,16.013 13.817,24.168 2.932,5.366 6.129,10.585 9.339,15.779 2.128,3.445 2.093,6.373 -0.082,9.599 -1.568,2.327 -2.838,4.848 -4.424,7.175 -9.76,17.052 -19.68,34.01 -29.238,51.169 -2.671,4.795 -5.683,7.176 -11.37,6.711 -6.455,-0.528 -12.98,0.041 -19.48,-0.284 -11.747,0.051 -23.489,-0.419 -35.225,0.238 C 1.536,304.876 0.737,305.378 0,306 v 11 c 1.605,1.453 3.604,1.571 5.599,1.566 15.888,-0.036 31.777,0.25 47.651,-0.137 8.142,-1.649 13.396,1.444 16.835,9.112 2.626,5.854 6.322,11.241 9.636,16.778 4.122,7.873 9.057,15.286 13.152,23.175 3.114,5.43 6.238,10.86 9.51,16.193 1.935,3.156 2.375,5.857 0.111,9.075 -1.979,2.813 -3.324,6.063 -5.393,8.857 -10.309,17.115 -19.648,34.784 -29.761,52.01 -1.101,1.875 -1.997,3.877 -4.277,4.648 -10.467,0.848 -20.93,0.003 -31.387,0.242 -8.54,0.167 -17.076,0.008 -25.611,0.083 C 3.95,458.621 1.749,458.356 0,460 v 10 c 1.457,1.323 3.266,1.551 5.107,1.551 16.063,0 32.128,0.256 48.178,-0.122 13.741,-0.226 10.175,-1.193 16.597,9.129 3.414,5.487 6.493,11.178 9.814,16.721 3.888,7.174 8.294,14.052 12.179,21.228 2.747,4.948 5.348,10.062 8.646,14.594 4.345,5.969 4.254,11.145 -0.456,16.533 -11.094,18.786 -21.602,37.908 -32.594,56.751 -1.181,2.024 -2.136,4.192 -4.649,4.944 -18.253,0.735 -36.488,-0.243 -54.72,0.098 C 5.325,611.479 2.406,610.968 0,613 v 10 c 2.1,1.818 4.674,1.517 7.143,1.522 15.812,0.035 31.625,0.134 47.434,-0.047 5.571,-0.064 10.71,0.035 13.475,6.001 0.332,0.715 1.255,1.063 1.948,1.524 h 12 c 0.832,-3.35 -1.326,-5.755 -2.915,-8.148 -2.627,-3.955 -2.592,-7.439 -0.097,-11.53 7.357,-12.064 14.118,-24.484 21.3,-36.655 5.375,-9.11 12.798,-16.509 20.437,-23.683 2.921,-2.743 6.487,-3.703 10.531,-3.684 18.126,0.086 36.252,0.07 54.375,0.036 8.229,-1.52 13.746,1.404 17.11,9.332 2.436,5.742 6.412,10.761 9.127,16.425 4.911,7.997 9.656,16.093 14.225,24.291 3.11,5.616 6.555,11.037 9.687,16.644 1.38,2.47 1.196,4.512 -0.169,6.908 -1.825,3.202 -4.596,6.02 -4.611,10.064 h 18 c 4.274,-6.323 10.239,-7.857 17.692,-7.66 17.82,0.469 35.661,0.276 53.491,0.076 5.451,-0.061 10.301,0.235 12.967,5.931 0.326,0.696 1.259,1.063 1.85,1.653 h 12 c 1.656,-3.282 -0.928,-5.45 -2.422,-7.55 -3.02,-4.242 -2.897,-7.906 -0.21,-12.349 7.319,-12.102 13.84,-24.696 21.407,-36.632 5.787,-9.129 13.442,-16.882 21.61,-24.02 2.921,-2.553 6.435,-3.15 10.238,-3.138 18.309,0.061 36.618,0.057 54.923,0.028 6.957,-1.341 11.344,1.399 14.542,7.781 3.156,6.3 6.829,12.392 10.651,18.353 4.058,7.86 8.919,15.269 12.994,23.119 2.97,5.782 6.644,11.153 9.859,16.797 1.619,2.841 1.449,5.007 0.102,7.873 -1.463,3.111 -5.184,5.494 -3.694,9.738 h 18 c 4.376,-6.157 10.289,-7.886 17.767,-7.661 16.31,0.491 32.65,0.373 48.968,0.052 7.429,-0.146 14.322,-0.11 18.265,7.609 h 12 c 1.618,-3.214 -0.759,-5.432 -2.231,-7.619 -2.853,-4.24 -2.751,-7.868 -0.066,-12.366 7.237,-12.123 13.785,-24.672 21.293,-36.622 5.75,-9.151 13.411,-16.862 21.515,-24.037 2.909,-2.576 6.464,-3.057 10.247,-3.046 18.281,0.057 36.561,0.06 54.838,0.024 0.987,0.017 1.993,0.084 2.964,-0.06 4.823,-0.712 7.901,1.004 10.279,5.527 3.679,6.995 7.843,13.753 11.903,20.551 4.585,8.177 9.341,16.255 14.129,24.314 2.514,5.01 5.366,9.832 8.358,14.562 2.16,3.412 2.318,6.397 0.055,10.034 -1.59,2.556 -4.621,4.947 -3.284,8.738 h 10 v -10 c 0,-277.167 -0.009,-554.333 0.093,-831.5 0.002,-3.749 -0.843,-4.595 -4.593,-4.593 -254.333,0.103 -508.667,0.103 -763,0 -3.749,-0.002 -4.606,0.842 -4.597,4.593 C 0.044,-154.334 0,-99.167 0,-44 c 2.532,0.62 4.024,-1.23 5.591,-2.56 23.68,-20.11 47.709,-39.805 71.295,-60.025 0.632,-0.541 1.358,-0.979 1.946,-1.557 2.625,-2.582 4.331,-2.036 5.939,1.23 2.566,5.215 5.842,10.054 8.51,15.226 3.163,5.199 5.931,10.637 9.278,15.722 1.942,2.949 2.14,5.702 0.127,8.689 -2.02,3 -3.643,6.256 -5.811,9.172 -10.318,16.937 -19.332,34.614 -29.463,51.658 -2.144,3.606 -4.535,5.35 -8.728,5.183 C 52.361,-1.513 46.023,-1.175 39.685,-1.483 28.241,-1.619 16.806,-1.597 5.37,-1.531 3.498,-1.308 1.516,-1.466 0,0" /></g><g
                 id="g34"
                 transform="translate(631,758.0012)"><path
                   id="path32"
                   style="fill:#fafafa;fill-opacity:1;fill-rule:nonzero;stroke:none"
                   d="m 0,0 c -18.49,0 -36.984,0.185 -55.47,-0.112 -5.692,-0.091 -9.793,2.11 -13.724,5.752 -13.093,12.129 -22.645,26.783 -30.883,42.441 -3.09,5.873 -6.249,11.756 -9.945,17.251 -2.694,4.005 -2.962,7.366 -0.207,11.292 1.791,2.554 3.752,5.116 4.229,8.375 h 24 c 2.698,-1.741 4.521,-4.385 6.748,-6.606 C -51.232,54.443 -27.24,30.464 -3.315,6.418 -1.626,4.72 1.407,3.42 0,0" /></g><g
                 id="g38"
                 transform="translate(366,758.0012)"><path
                   id="path36"
                   style="fill:#fafafa;fill-opacity:1;fill-rule:nonzero;stroke:none"
                   d="m 0,0 c -18.477,0 -36.957,0.185 -55.43,-0.112 -5.681,-0.091 -9.805,2.068 -13.725,5.719 -12.277,11.433 -21.837,24.826 -29.556,39.67 -3.977,7.649 -8.289,15.146 -12.858,22.456 -1.759,2.815 -1.314,4.826 0.159,7.284 1.945,3.245 4.559,6.141 5.41,9.982 h 24 C -56.716,57.874 -29.729,32.434 -3.818,5.931 -2.19,4.266 0.47,3.087 0,0" /></g><g
                 id="g42"
                 transform="translate(99.0006,758.0012)"><path
                   id="path40"
                   style="fill:#fafafa;fill-opacity:1;fill-rule:nonzero;stroke:none"
                   d="m 0,0 c -18.125,0 -36.253,0.19 -54.372,-0.113 -5.67,-0.095 -9.762,2.092 -13.737,5.659 -13.457,12.078 -22.043,27.583 -30.724,43.049 -3.08,5.489 -6.098,11.037 -9.568,16.277 -2.858,4.316 -2.934,8.106 0.064,12.304 1.721,2.41 2.909,5.202 4.336,7.823 h 23 c 2.415,-3.178 5.189,-6.024 8.009,-8.84 C -49.735,52.937 -26.483,29.71 -3.305,6.41 -1.618,4.714 1.407,3.413 0,0" /></g><g
                 id="g46"
                 transform="translate(99.0006,758.0012)"><path
                   id="path44"
                   style="fill:#f8f8f8;fill-opacity:1;fill-rule:nonzero;stroke:none"
                   d="m 0,0 c -0.095,2.504 -2.18,3.636 -3.658,5.116 -24.664,24.72 -49.366,49.401 -74.05,74.101 -1.615,1.616 -3.699,2.999 -3.293,5.782 h 50 c 5.014,-4.351 9.392,-9.345 14.127,-13.979 C -2.531,56.98 11.291,42.414 25.903,28.644 26.397,28.178 26.706,27.597 26.998,27 23.053,17.917 17.299,9.852 12.456,1.274 11.385,-0.622 9.196,0.062 7.436,0.016 4.959,-0.049 2.479,0 0,0" /></g><g
                 id="g50"
                 transform="translate(366,758.0012)"><path
                   id="path48"
                   style="fill:#f8f8f8;fill-opacity:1;fill-rule:nonzero;stroke:none"
                   d="m 0,0 c -1.198,1.364 -2.323,2.799 -3.603,4.081 -24.639,24.667 -49.293,49.317 -73.95,73.966 -1.996,1.995 -4.161,3.869 -4.447,6.952 h 49 c 4.416,-3.794 8.269,-8.16 12.393,-12.25 C -9.035,61.274 2.467,49.73 13.974,38.19 17.843,34.31 21.687,30.409 25.995,27.002 22.194,20.663 17.716,14.621 14.78,7.905 11.692,0.842 6.881,-1.023 0,0" /></g><g
                 id="g54"
                 transform="translate(631,758.0012)"><path
                   id="path52"
                   style="fill:#f8f8f8;fill-opacity:1;fill-rule:nonzero;stroke:none"
                   d="m 0,0 c -0.093,2.5 -2.175,3.631 -3.649,5.108 -24.622,24.678 -49.275,49.324 -73.939,73.959 -1.773,1.771 -3.509,3.531 -4.412,5.932 h 49 c 4.133,-3.371 7.558,-7.46 11.329,-11.196 C -8.795,61.046 3.996,48.205 16.792,35.368 19.725,32.425 22.681,29.519 25.995,27.001 21.174,18.696 16.276,10.434 11.583,2.057 10.301,-0.232 8.449,0.003 6.481,0 4.32,-0.004 2.16,0 0,0" /></g><g
                 id="g58"
                 transform="translate(14.0015,761.0003)"><path
                   id="path56"
                   style="fill:#f3f3f3;fill-opacity:1;fill-rule:nonzero;stroke:none"
                   d="m 0,0 c 5.951,-8.541 5.882,-8.499 0.695,-16.934 -3.036,-4.938 -5.81,-10.038 -8.702,-15.065 -3.021,-1.893 -4.65,0.549 -6.336,2.211 -8.898,8.765 -17.605,17.723 -26.543,26.446 C -61.381,16.66 -80.693,37.817 -101.002,58 v 5 c 19.946,0 39.891,0.016 59.837,-0.029 1.747,-0.004 3.698,0.655 5.177,-0.964 -1.774,-1.755 -4.045,-1.165 -6.141,-1.227 -5.91,-0.175 -11.839,0.208 -17.634,-0.203 -0.342,-1.409 0.412,-1.936 0.97,-2.49 C -39.815,39.268 -21.225,20.058 -1.946,1.541 -1.342,0.961 -0.687,0.465 0,0" /></g><g
                 id="g62"
                 transform="translate(-6.0046,555.0024)"><path
                   id="path60"
                   style="fill:#f5f5f5;fill-opacity:1;fill-rule:nonzero;stroke:none"
                   d="m 0,0 c -2.779,-0.409 -4.159,1.674 -5.773,3.286 -23.37,23.355 -46.722,46.728 -70.113,70.063 -1.478,1.474 -2.609,3.557 -5.109,3.649 v 39 c 10.666,-0.002 21.332,-0.004 31.999,-0.006 -0.512,-2.937 -2.944,-2.11 -4.668,-2.161 -5.813,-0.169 -11.634,-0.028 -17.45,-0.092 -1.081,-0.012 -2.581,0.518 -3.087,-0.879 -0.455,-1.259 0.804,-2.055 1.547,-2.899 0.989,-1.122 2.087,-2.143 3.144,-3.201 C -45.77,83.02 -22.033,59.276 1.714,35.543 5.699,31.56 9.203,27.149 13.001,23 8.667,15.333 4.334,7.667 0,0" /></g><g
                 id="g66"
                 transform="translate(-6.9989,247.9976)"><path
                   id="path64"
                   style="fill:#f5f5f5;fill-opacity:1;fill-rule:nonzero;stroke:none"
                   d="m 0,0 c -2.3,2.134 -4.67,4.197 -6.889,6.412 -22.675,22.64 -45.317,45.312 -68.003,67.941 -1.478,1.475 -2.609,3.557 -5.109,3.649 v 38 h 3 C -61.125,100.548 -45.623,84.718 -29.919,69.09 -17.993,57.22 -6.104,45.311 5.772,33.391 8.71,30.442 11.673,27.532 14.991,25.005 Z" /></g><g
                 id="g70"
                 transform="translate(-87,211)"><path
                   id="path68"
                   style="fill:#f5f5f5;fill-opacity:1;fill-rule:nonzero;stroke:none"
                   d="M 0,0 C 1.667,-0.002 3.334,-0.004 5,-0.006 5.858,-3.147 7.707,-5.592 10.004,-7.882 36.203,-34 62.363,-60.158 88.473,-86.366 c 1.855,-1.862 4.375,-3.094 5.533,-5.639 -2.576,-6.69 -6.846,-12.457 -10.192,-18.727 -0.984,-1.846 -1.776,-1.656 -3.307,-0.355 C 65.87,-98.648 51.285,-86.142 36.403,-74.001 24.218,-64.061 12.734,-53.27 0,-44 Z" /></g><g
                 id="g74"
                 transform="translate(-6.9989,400.9971)"><path
                   id="path72"
                   style="fill:#f5f5f5;fill-opacity:1;fill-rule:nonzero;stroke:none"
                   d="m 0,0 c -2.535,2.369 -5.139,4.667 -7.593,7.117 -22.441,22.404 -44.848,44.843 -67.299,67.237 -1.478,1.474 -2.608,3.557 -5.109,3.649 v 38 h 2 c 2.575,-1.629 4.284,-4.152 6.393,-6.256 C -45.121,83.323 -18.66,56.872 7.748,30.369 9.843,28.267 12.508,26.708 13.993,24.007 9.719,15.777 5.377,7.587 0,0" /></g><g
                 id="g78"
                 transform="translate(-87,819)"><path
                   id="path76"
                   style="fill:#f5f5f5;fill-opacity:1;fill-rule:nonzero;stroke:none"
                   d="m 0,0 c 0.631,-0.181 1.458,-0.165 1.863,-0.571 9.047,-9.061 18.056,-18.16 27.044,-27.279 1.041,-1.057 1.831,-2.361 2.878,-3.41 18.578,-18.612 37.178,-37.202 55.772,-55.799 1.522,-1.523 2.889,-3.322 5.438,-2.939 -4,-7 -7.999,-14 -11.999,-21 -2.779,-0.409 -4.159,1.673 -5.773,3.286 C 51.852,-84.357 28.5,-60.984 5.11,-37.649 3.631,-36.174 2.501,-34.092 0,-34 Z" /></g><g
                 id="g82"
                 transform="translate(391.9946,785.0031)"><path
                   id="path80"
                   style="fill:#f5f5f5;fill-opacity:1;fill-rule:nonzero;stroke:none"
                   d="m 0,0 c -2.679,0.26 -4.474,1.96 -6.258,3.746 -16.328,16.353 -32.663,32.697 -49.028,49.012 -1.555,1.55 -2.875,3.207 -3.709,5.239 h 37 C -10.19,46.472 1.48,34.812 12.997,23 8.665,15.333 4.332,7.667 0,0" /></g><g
                 id="g86"
                 transform="translate(125.9985,785.0014)"><path
                   id="path84"
                   style="fill:#f5f5f5;fill-opacity:1;fill-rule:nonzero;stroke:none"
                   d="m 0,0 c -2.221,0.865 -3.93,2.4 -5.592,4.066 -16.092,16.135 -32.205,32.249 -48.34,48.34 -1.667,1.662 -3.2,3.372 -4.066,5.593 h 37 C -12.885,50.37 -5.224,42.286 2.691,34.457 6.346,30.841 9.973,27.205 14.002,23.998 9.8,15.727 5.175,7.703 0,0" /></g><g
                 id="g90"
                 transform="translate(404.9915,808.0032)"><path
                   id="path88"
                   style="fill:#f2f2f2;fill-opacity:1;fill-rule:nonzero;stroke:none"
                   d="m 0,0 c -1.479,-0.033 -2.409,0.911 -3.353,1.856 -9.925,9.932 -19.853,19.861 -29.786,29.786 -0.945,0.944 -1.883,1.878 -1.852,3.355 h 40 C 5.804,31 8.516,27.934 10.457,24.558 11.968,21.931 11.774,20.208 10.354,17.86 6.792,11.974 3.438,5.962 0,0" /></g><g
                 id="g94"
                 transform="translate(140,808.9999)"><path
                   id="path92"
                   style="fill:#f2f2f2;fill-opacity:1;fill-rule:nonzero;stroke:none"
                   d="M 0,0 C -2.272,0.243 -3.987,1.473 -5.55,3.04 -14.351,11.864 -23.156,20.685 -31.998,29.468 -33.33,30.792 -34.227,32.339 -35,34 H 4 C 5.248,31.85 6.153,29.379 7.808,27.609 13.017,22.036 10.905,17.039 7.298,11.802 4.677,7.998 2.42,3.943 0,0" /></g><g
                 id="g98"
                 transform="translate(248,843)"><path
                   id="path96"
                   style="fill:#fafafa;fill-opacity:1;fill-rule:nonzero;stroke:none"
                   d="M 0,0 C -3.815,-9 -3.815,-9 -13.14,-9 -33.894,-9 -54.648,-9.009 -75.402,-8.993 -80.605,-8.989 -84.878,-5.324 -86,0 Z" /></g><g
                 id="g102"
                 transform="translate(513,843)"><path
                   id="path100"
                   style="fill:#fafafa;fill-opacity:1;fill-rule:nonzero;stroke:none"
                   d="M 0,0 C -2.82,-8.6 -3.359,-9 -12.113,-9 -32.856,-9 -53.599,-9.011 -74.342,-8.991 -79.274,-8.986 -83.947,-4.99 -85,0 Z" /></g><g
                 id="g106"
                 transform="translate(391.0024,324.9976)"><path
                   id="path104"
                   style="fill:#f8f8f8;fill-opacity:1;fill-rule:nonzero;stroke:none"
                   d="m 0,0 c -3.689,-9.049 -9.391,-16.969 -14.234,-25.37 -1.008,-1.748 -2.713,-1.629 -4.376,-1.628 -4.797,0.003 -9.595,0.001 -14.392,0 -2.699,1.743 -4.524,4.388 -6.752,6.61 -27.328,27.262 -54.627,54.554 -81.872,81.898 -1.728,1.734 -4.62,3.11 -3.376,6.492 l 21,36 c 3.787,-3.248 7.114,-6.966 10.637,-10.483 C -64.407,64.606 -35.463,35.678 -6.581,6.689 -4.376,4.476 -1.566,2.841 0,0" /></g><g
                 id="g110"
                 transform="translate(401.9988,781.0005)"><path
                   id="path108"
                   style="fill:#f8f8f8;fill-opacity:1;fill-rule:nonzero;stroke:none"
                   d="m 0,0 c 5.401,9.791 10.789,19.59 16.233,29.357 0.373,0.669 1.167,1.102 1.766,1.645 2.754,-1.418 4.244,-4.142 6.34,-6.231 30.52,-30.418 60.987,-60.889 91.411,-91.403 2.097,-2.103 4.76,-3.666 6.249,-6.366 -4.74,-8.449 -9.478,-16.899 -14.219,-25.347 -0.988,-1.761 -2.687,-1.66 -4.352,-1.656 -2.809,0.006 -5.618,0.002 -8.427,0.002 -2.072,1.1 -3.825,2.584 -5.471,4.257 C 61.201,-66.931 33.138,-37.857 4.341,-9.509 1.701,-6.91 -0.723,-4.159 0,0" /></g><g
                 id="g114"
                 transform="translate(258.9976,95.0024)"><path
                   id="path112"
                   style="fill:#f8f8f8;fill-opacity:1;fill-rule:nonzero;stroke:none"
                   d="m 0,0 c -4.197,-7.33 -8.609,-14.549 -12.505,-22.036 -2.162,-4.154 -5.043,-5.686 -9.513,-5.006 -1.624,0.247 -3.318,0.041 -4.979,0.042 -3.652,1.687 -5.406,5.32 -8.093,7.99 -21.259,21.114 -42.332,42.416 -63.646,63.474 -7.346,7.259 -13.902,15.239 -21.273,22.46 -1.42,1.392 -2.703,2.965 -2.989,5.074 5.923,10.377 11.087,21.196 17.999,31 3.093,0.482 4.282,-2.178 5.928,-3.818 C -68.2,68.407 -37.377,37.587 -6.601,6.719 -4.387,4.498 -1.616,2.809 0,0" /></g><g
                 id="g118"
                 transform="translate(258.9949,401.0045)"><path
                   id="path116"
                   style="fill:#f8f8f8;fill-opacity:1;fill-rule:nonzero;stroke:none"
                   d="m 0,0 c -4.354,-7.387 -8.707,-14.775 -13.062,-22.161 -0.824,-1.398 -1.184,-3.151 -2.932,-3.845 -7.708,-2.235 -13.447,1.234 -18.616,6.403 -13.04,13.04 -26.079,26.079 -39.119,39.118 -14.332,14.331 -28.63,28.696 -43.022,42.967 -3.033,3.008 -5.391,6.277 -6.242,10.514 6,10.332 11.999,20.665 17.999,30.998 2.461,-0.565 3.773,-2.632 5.386,-4.243 30.685,-30.636 61.359,-61.284 91.963,-92 C -5.086,5.183 -1.822,3.293 0,0" /></g><g
                 id="g122"
                 transform="translate(125.9969,478.0024)"><path
                   id="path120"
                   style="fill:#f8f8f8;fill-opacity:1;fill-rule:nonzero;stroke:none"
                   d="m 0,0 c -4.999,-8.667 -9.998,-17.335 -14.998,-26.002 -6.767,-1.483 -12.317,-0.144 -17.508,5.115 -28.269,28.637 -56.825,56.99 -85.266,85.458 -2.322,2.324 -5.09,4.481 -4.226,8.428 3.744,8.897 9.389,16.753 13.849,25.261 1.222,2.33 2.76,4.496 4.152,6.738 7.526,-7.062 14.659,-14.519 21.963,-21.804 C -60.45,61.668 -38.839,40.169 -17.408,18.491 -11.462,12.477 -5.898,6.075 0,0" /></g><g
                 id="g126"
                 transform="translate(3.9994,704.0006)"><path
                   id="path124"
                   style="fill:#f8f8f8;fill-opacity:1;fill-rule:nonzero;stroke:none"
                   d="m 0,0 c 5.494,10.951 11.539,21.592 18.001,31.998 18.178,-18.301 36.776,-36.175 54.448,-54.995 15.158,-16.144 31.124,-31.529 46.936,-47.047 0.945,-0.928 2.125,-1.628 2.613,-2.954 -5,-8.667 -9.999,-17.335 -14.998,-26.002 -6.767,-1.483 -12.317,-0.144 -17.509,5.114 C 61.222,-65.249 32.666,-36.895 4.226,-8.428 1.904,-6.104 -0.865,-3.947 0,0" /></g><g
                 id="g130"
                 transform="translate(136.9989,628.0009)"><path
                   id="path128"
                   style="fill:#f8f8f8;fill-opacity:1;fill-rule:nonzero;stroke:none"
                   d="m 0,0 c 4.906,10.431 10.846,20.276 17,29.999 3.082,0.446 4.293,-2.185 5.947,-3.834 30.864,-30.769 61.683,-61.583 92.453,-92.447 2.213,-2.22 4.984,-3.91 6.6,-6.718 -4.3,-7.46 -8.793,-14.818 -12.82,-22.422 -2.002,-3.782 -4.572,-5.276 -8.697,-4.616 -1.459,0.233 -2.985,0.038 -4.481,0.038 -12.225,11.783 -24.076,23.942 -36.1,35.927 C 41.155,-45.387 22.435,-26.674 3.78,-7.897 1.681,-5.784 -1.444,-3.915 0,0" /></g><g
                 id="g134"
                 transform="translate(258.9976,249.0024)"><path
                   id="path132"
                   style="fill:#f8f8f8;fill-opacity:1;fill-rule:nonzero;stroke:none"
                   d="m 0,0 c -4.905,-9.254 -9.767,-18.533 -15.996,-27.002 -6.331,-1.595 -11.412,0.029 -16.139,4.799 -28.472,28.727 -57.127,57.273 -85.755,85.845 -2.407,2.403 -4.46,4.924 -5.107,8.356 l 18,30.999 c 2.465,-0.566 3.778,-2.638 5.395,-4.251 C -72.509,71.703 -45.46,44.616 -18.371,17.568 -12.375,11.581 -6.63,5.326 0,0" /></g><g
                 id="g138"
                 transform="translate(258.9988,708.0006)"><path
                   id="path136"
                   style="fill:#f8f8f8;fill-opacity:1;fill-rule:nonzero;stroke:none"
                   d="m 0,0 c -4.488,-7.93 -9.043,-15.823 -13.431,-23.808 -1.637,-2.98 -4.082,-3.463 -7.084,-3.22 -1.816,0.148 -3.654,0.028 -5.483,0.029 -12.225,11.782 -24.076,23.942 -36.1,35.927 -18.746,18.686 -37.467,37.398 -56.122,56.175 -2.099,2.113 -5.224,3.982 -3.78,7.897 4.906,10.431 10.848,20.275 17.001,30 2.252,0.597 3.322,-1.192 4.546,-2.413 22.969,-22.91 46.16,-45.606 68.724,-68.911 C -21.325,20.93 -11.19,9.948 0,0" /></g><g
                 id="g142"
                 transform="translate(269,704)"><path
                   id="path140"
                   style="fill:#f8f8f8;fill-opacity:1;fill-rule:nonzero;stroke:none"
                   d="m 0,0 c 5.725,10.493 11.22,21.12 17.998,31.002 2.463,-0.569 3.779,-2.638 5.396,-4.252 27.211,-27.161 54.38,-54.365 81.584,-81.533 5.879,-5.871 11.518,-11.995 18.02,-17.216 C 117.665,-80.999 112.332,-90 107,-99 100.576,-100.51 95.51,-99.164 90.593,-94.049 74.581,-77.392 57.708,-61.561 41.797,-44.812 28.859,-31.192 15.529,-17.976 2.391,-4.563 1.171,-3.318 -0.557,-2.226 0,0" /></g><g
                 id="g146"
                 transform="translate(391.9976,479.0012)"><path
                   id="path144"
                   style="fill:#f8f8f8;fill-opacity:1;fill-rule:nonzero;stroke:none"
                   d="m 0,0 c -5.333,-9 -10.665,-18.001 -15.998,-27.001 -6.44,-1.525 -11.551,-0.206 -16.406,4.994 -27.947,29.941 -57.387,58.423 -86.248,87.472 -1.866,1.878 -3.879,3.705 -4.347,6.534 5.726,10.492 11.221,21.119 17.998,31.001 1.712,0.468 2.283,-1.034 3.151,-1.906 C -70.33,69.406 -38.63,37.898 -7.099,6.223 -4.86,3.974 -2.152,2.315 0,0" /></g><g
                 id="g150"
                 transform="translate(125.9969,325.0024)"><path
                   id="path148"
                   style="fill:#f8f8f8;fill-opacity:1;fill-rule:nonzero;stroke:none"
                   d="m 0,0 c -3.968,-8.875 -9.446,-16.91 -14.328,-25.264 -2.097,-3.588 -6.419,-1.106 -9.669,-1.738 -1.895,1.056 -3.575,2.36 -5.121,3.908 -29.401,29.444 -58.844,58.845 -88.221,88.311 -2.15,2.157 -4.938,4.097 -4.658,7.781 5.726,10.493 11.22,21.12 17.998,31.002 3.072,-1.065 4.212,-4.127 6.295,-6.202 C -67.152,67.37 -36.664,36.876 -6.225,6.335 -4.139,4.241 -1.175,2.987 0,0" /></g><g
                 id="g154"
                 transform="translate(3.9994,245)"><path
                   id="path152"
                   style="fill:#f8f8f8;fill-opacity:1;fill-rule:nonzero;stroke:none"
                   d="m 0,0 c 5.726,10.493 11.22,21.12 17.998,31.002 2.755,-1.417 4.245,-4.142 6.341,-6.23 30.519,-30.419 60.986,-60.889 91.41,-91.403 2.097,-2.103 4.761,-3.666 6.249,-6.367 -3.973,-8.875 -9.682,-16.775 -14.226,-25.331 -1.181,-2.224 -3.403,-1.6 -5.321,-1.659 -1.815,-0.056 -3.633,-0.01 -5.45,-0.01 C 84.683,-88.115 72.734,-75.862 60.614,-63.78 41.666,-44.892 22.754,-25.967 3.874,-7.01 1.958,-5.087 -0.672,-3.415 0,0" /></g><g
                 id="g158"
                 transform="translate(268.9988,551)"><path
                   id="path156"
                   style="fill:#fafafa;fill-opacity:1;fill-rule:nonzero;stroke:none"
                   d="m 0,0 c 24.867,-25.033 49.848,-49.956 74.513,-75.186 5.449,-5.574 10.952,-11.161 16.053,-17.053 4.507,-5.205 9.517,-7.994 16.435,-6.761 -6.3,-2.147 -12.798,-1.187 -19.127,-0.674 -10.275,0.832 -20.46,0.878 -30.733,-0.019 -6.768,-0.592 -13.864,-1.336 -20.372,0.055 -7.069,1.51 -11.558,7.911 -16.493,13.073 -15.019,15.706 -22.692,36.074 -34.411,53.869 -1.676,2.545 -2.103,4.943 -0.366,7.82 C -9.539,-16.661 -4.817,-8.302 0,0" /></g><g
                 id="g162"
                 transform="translate(269,704)"><path
                   id="path160"
                   style="fill:#fafafa;fill-opacity:1;fill-rule:nonzero;stroke:none"
                   d="m 0,0 c 7.56,-7.727 15.232,-15.349 22.66,-23.201 22.192,-23.459 45.343,-45.97 67.899,-69.065 4.777,-4.891 9.528,-7.963 16.441,-6.734 -1.473,-1.635 -3.436,-1.017 -5.173,-0.961 -10.932,0.356 -21.848,-0.347 -32.819,0.751 -10.018,1.004 -20.141,-1.289 -30.288,-0.896 -3.558,0.137 -6.101,1.062 -8.786,3.514 -14.42,13.175 -24.788,29.219 -33.845,46.288 -3.026,5.703 -6.411,11.222 -9.803,16.719 -1.993,3.232 -2.552,6.095 -0.358,9.626 C -9.184,-16.096 -4.668,-8.001 0,0" /></g><g
                 id="g166"
                 transform="translate(4,398)"><path
                   id="path164"
                   style="fill:#fafafa;fill-opacity:1;fill-rule:nonzero;stroke:none"
                   d="m 0,0 c 1.846,-3.186 4.308,-5.846 6.904,-8.438 29.07,-29.016 58.106,-58.065 87.134,-87.122 1.4,-1.401 2.645,-2.956 3.962,-4.44 -19.984,0 -39.969,0.073 -59.953,-0.072 -3.291,-0.024 -5.464,1.193 -7.881,3.275 -16.944,14.59 -27.629,33.642 -38.179,52.817 -1.841,3.346 -3.424,6.893 -5.684,9.934 -2.43,3.27 -2.661,6.107 -0.573,9.577 C -9.403,-16.379 -4.744,-8.164 0,0" /></g><g
                 id="g170"
                 transform="translate(3.9994,245)"><path
                   id="path168"
                   style="fill:#fafafa;fill-opacity:1;fill-rule:nonzero;stroke:none"
                   d="m 0,0 c 0.948,-2.588 2.893,-4.407 4.78,-6.292 29.534,-29.516 59.063,-59.037 88.561,-88.588 1.478,-1.481 3.564,-2.613 3.66,-5.118 -19.799,0 -39.599,0.05 -59.398,-0.058 -2.896,-0.016 -4.906,0.946 -7.028,2.878 -14.919,13.582 -26.136,29.85 -35.373,47.646 -2.899,5.585 -6.204,10.967 -9.494,16.337 -1.508,2.461 -2.225,4.713 -0.636,7.409 C -9.884,-17.231 -5.595,-8.238 0,0" /></g><g
                 id="g174"
                 transform="translate(136.9989,628.0009)"><path
                   id="path172"
                   style="fill:#fafafa;fill-opacity:1;fill-rule:nonzero;stroke:none"
                   d="m 0,0 c 0.288,-3.091 2.462,-4.967 4.462,-6.966 29.302,-29.296 58.607,-58.589 87.879,-87.914 1.478,-1.481 3.565,-2.615 3.661,-5.12 -18.464,0 -36.93,0.186 -55.389,-0.113 -5.673,-0.092 -9.754,2.112 -13.738,5.673 -13.856,12.388 -22.821,28.244 -31.755,44.15 -3.409,6.069 -6.833,12.133 -10.422,18.097 -1.415,2.351 -1.875,4.122 -0.08,6.704 C -9.713,-17.335 -5.989,-7.983 0,0" /></g><g
                 id="g178"
                 transform="translate(136.9988,781.001)"><path
                   id="path176"
                   style="fill:#fafafa;fill-opacity:1;fill-rule:nonzero;stroke:none"
                   d="m 0,0 c 0.288,-3.09 2.462,-4.967 4.462,-6.966 29.302,-29.296 58.607,-58.589 87.879,-87.914 1.479,-1.482 3.565,-2.615 3.661,-5.12 -18.463,0 -36.93,0.186 -55.389,-0.113 -5.673,-0.092 -9.779,2.08 -13.733,5.679 -13.715,12.483 -22.961,28.138 -31.768,44.139 -3.357,6.098 -6.825,12.138 -10.414,18.102 -1.414,2.351 -1.934,4.148 -0.069,6.699 C -9.5,-17.465 -6.083,-7.926 0,0" /></g><g
                 id="g182"
                 transform="translate(136.0006,321)"><path
                   id="path180"
                   style="fill:#fafafa;fill-opacity:1;fill-rule:nonzero;stroke:none"
                   d="m 0,0 c 29.759,-33.182 62.714,-63.22 93.664,-95.228 3.843,-3.975 8.477,-3.993 13.337,-3.772 -5.967,-2.067 -12.13,-1.202 -18.129,-0.685 -10.274,0.884 -20.46,0.889 -30.733,-0.008 -6.767,-0.592 -13.682,-0.765 -20.412,-0.031 -3.786,0.412 -6.903,3.655 -9.874,6.343 -13.111,11.862 -22.467,26.441 -30.666,41.901 -2.872,5.415 -5.623,11.003 -9.296,15.855 -3.957,5.229 -3.242,9.733 -0.184,14.762 C -8.099,-13.967 -4.089,-6.96 0,0" /></g><g
                 id="g186"
                 transform="translate(3.9994,704.0006)"><path
                   id="path184"
                   style="fill:#fafafa;fill-opacity:1;fill-rule:nonzero;stroke:none"
                   d="m 0,0 c 0.813,-3.183 2.904,-5.455 5.169,-7.714 28.03,-27.961 56.12,-55.865 83.915,-84.058 5.179,-5.254 10.481,-8.427 17.916,-7.228 -1.475,-1.638 -3.441,-1.018 -5.18,-0.961 -10.948,0.361 -21.878,-0.315 -32.866,0.741 -10.365,0.997 -20.839,-1.343 -31.33,-0.863 -2.865,0.131 -4.883,0.997 -7.041,2.884 -15.936,13.932 -26.52,31.717 -36.503,49.973 -2.866,5.241 -5.857,10.419 -8.973,15.515 -1.057,1.729 -1.699,3.544 -0.702,5.14 C -10.148,-17.857 -6.224,-8.251 0,0" /></g><g
                 id="g190"
                 transform="translate(3.9988,551.0012)"><path
                   id="path188"
                   style="fill:#fafafa;fill-opacity:1;fill-rule:nonzero;stroke:none"
                   d="m 0,0 c 0.814,-3.182 2.904,-5.455 5.169,-7.714 28.031,-27.961 56.12,-55.865 83.916,-84.059 5.179,-5.253 10.48,-8.426 17.916,-7.228 -6.302,-2.148 -12.801,-1.184 -19.13,-0.673 -10.277,0.829 -20.463,0.878 -30.738,-0.023 -6.768,-0.593 -13.686,-0.767 -20.416,-0.026 -3.781,0.416 -6.92,3.637 -9.87,6.353 -12.372,11.39 -21.281,25.276 -29.164,39.952 -4.157,7.742 -8.584,15.342 -13.027,22.925 -0.837,1.428 -1.379,2.564 -0.399,4.044 C -10.073,-17.885 -6.18,-8.262 0,0" /></g><g
                 id="g194"
                 transform="translate(136,167)"><path
                   id="path192"
                   style="fill:#fafafa;fill-opacity:1;fill-rule:nonzero;stroke:none"
                   d="m 0,0 c 29,-31.804 60.345,-61.302 90.455,-92.015 2.069,-2.111 3.707,-4.645 5.545,-6.983 -19.467,0 -38.935,0.051 -58.402,-0.058 -2.897,-0.016 -4.885,0.986 -7.03,2.876 -15.49,13.643 -25.731,31.036 -35.45,48.848 -3.016,5.527 -6.327,10.893 -9.51,16.328 -1.013,1.73 -2.142,3.366 -0.845,5.517 C -10.126,-17.011 -5.074,-8.499 0,0" /></g><g
                 id="g198"
                 transform="translate(136.0015,474.0001)"><path
                   id="path196"
                   style="fill:#fafafa;fill-opacity:1;fill-rule:nonzero;stroke:none"
                   d="m 0,0 c 27.709,-33.362 60.632,-61.649 90.482,-92.927 4.425,-4.636 9.904,-7.062 16.518,-6.074 -1.478,-1.635 -3.444,-1.014 -5.185,-0.96 -10.621,0.331 -21.224,-0.272 -31.883,0.747 -10.375,0.993 -20.85,-1.364 -31.347,-0.871 -2.877,0.135 -4.885,1.029 -7.031,2.918 -16.256,14.304 -27.428,32.291 -37.54,51.088 -2.754,5.118 -5.67,10.149 -8.591,15.174 -1.106,1.903 -1.068,3.326 0.163,5.392 C -9.418,-17.123 -4.774,-8.523 0,0" /></g><g
                 id="g202"
                 transform="translate(401.9988,781.0005)"><path
                   id="path200"
                   style="fill:#fafafa;fill-opacity:1;fill-rule:nonzero;stroke:none"
                   d="m 0,0 c 1.115,-4.347 3.912,-7.502 7.026,-10.592 17.683,-17.546 35.672,-34.811 52.735,-52.944 11.59,-12.317 24.039,-23.786 35.24,-36.463 -18.159,-0.001 -36.322,0.187 -54.476,-0.112 -5.695,-0.095 -9.789,2.12 -13.725,5.757 -12.628,11.668 -21.605,25.924 -29.638,40.917 -3.998,7.462 -8.324,14.749 -12.556,22.084 -0.735,1.274 -1.727,2.116 -0.629,3.931 C -10.545,-18.363 -6.067,-8.719 0,0" /></g><g
                 id="g206"
                 transform="translate(126.0031,18.9976)"><path
                   id="path204"
                   style="fill:#f8f8f8;fill-opacity:1;fill-rule:nonzero;stroke:none"
                   d="m 0,0 c -1.954,-6.641 -6.727,-11.77 -9.635,-17.914 -1.443,-3.049 -3.51,-0.796 -4.836,0.246 -6.117,4.809 -12.106,9.783 -18.099,14.748 -13.386,11.09 -26.799,22.147 -40.103,33.334 -11.917,10.02 -23.692,20.208 -35.552,30.297 -3.909,3.325 -7.895,6.56 -11.83,9.855 -1.376,1.153 -2.17,2.366 -1.037,4.279 5.743,9.692 11.401,19.433 17.089,29.157 2.142,-0.414 3.308,-2.16 4.696,-3.546 C -67.37,68.554 -35.451,36.635 -3.548,4.698 -2.161,3.309 -0.421,2.139 0,0" /></g><g
                 id="g210"
                 transform="translate(266,393)"><path
                   id="path208"
                   style="fill:#fbfbfb;fill-opacity:1;fill-rule:nonzero;stroke:none"
                   d="m 0,0 c 0.093,-2.504 2.178,-3.636 3.655,-5.116 27.952,-28.005 55.933,-55.981 83.925,-83.945 1.775,-1.773 3.516,-3.535 4.42,-5.939 -19.646,0 -39.294,0.106 -58.938,-0.089 -3.98,-0.039 -6.042,1.163 -8.065,4.749 -11.904,21.095 -24.105,42.024 -36.427,62.877 -1.624,2.749 -1.616,4.742 -0.123,7.287 C -7.633,-13.491 -3.842,-6.73 0,0" /></g><g
                 id="g214"
                 transform="translate(258.9988,708.0006)"><path
                   id="path212"
                   style="fill:#f5f5f5;fill-opacity:1;fill-rule:nonzero;stroke:none"
                   d="m 0,0 c -3.088,0.286 -4.997,2.423 -6.954,4.46 -30.725,31.999 -62.24,63.216 -93.607,94.58 -1.399,1.4 -2.955,2.643 -4.438,3.96 3.282,10.419 9.753,14.098 21.118,13.322 17.886,-1.221 35.916,-0.327 53.885,-0.328 0.317,-0.566 0.221,-1.05 -0.285,-1.454 -2.843,-1.458 -5.901,-0.783 -8.877,-0.894 -11.565,0.195 -23.13,0.104 -34.948,0.076 0.725,-2.773 2.537,-3.843 3.902,-5.211 26.803,-26.85 53.627,-53.679 80.474,-80.485 1.296,-1.295 2.509,-2.657 3.723,-4.023 C 9.328,16.002 4.664,8.001 0,0" /></g><g
                 id="g218"
                 transform="translate(523.9976,708.0026)"><path
                   id="path216"
                   style="fill:#f5f5f5;fill-opacity:1;fill-rule:nonzero;stroke:none"
                   d="m 0,0 c -2.225,0.865 -3.933,2.406 -5.598,4.073 -31.426,31.46 -62.869,62.903 -94.329,94.328 -1.667,1.666 -3.204,3.377 -4.073,5.599 1.332,2.649 2.701,5.281 3.987,7.953 1.444,2.999 3.55,4.169 7.084,4.137 20.977,-0.191 41.956,-0.097 62.934,-0.098 0.315,-0.574 0.214,-1.061 -0.301,-1.464 -3.15,-1.542 -6.511,-0.748 -9.784,-0.885 -11.273,0.208 -22.548,0.078 -34.028,0.106 0.577,-2.73 2.432,-3.762 3.785,-5.115 C -42.87,81.172 -15.479,53.649 12.071,26.284 12.785,25.574 13.423,24.816 14,23.998 9.333,15.999 4.667,7.999 0,0" /></g><g
                 id="g222"
                 transform="translate(125.9969,631.0027)"><path
                   id="path220"
                   style="fill:#f5f5f5;fill-opacity:1;fill-rule:nonzero;stroke:none"
                   d="m 0,0 c -2.224,0.865 -3.933,2.402 -5.595,4.07 -14.453,14.498 -29.369,28.564 -43.304,43.542 -17.006,18.28 -35.158,35.393 -52.512,53.307 -1.138,1.175 -2.611,2.157 -2.585,4.077 1.606,2.866 3.335,5.671 4.78,8.616 1.084,2.209 2.834,2.421 4.917,2.404 5.767,-0.049 11.535,-0.018 17.302,-0.018 21.253,-20.85 42.164,-42.043 63.231,-63.079 C -4.476,43.643 4.942,34.493 14.009,24.994 10.272,16.14 4.666,8.333 0,0" /></g><g
                 id="g226"
                 transform="translate(258.9988,555.0012)"><path
                   id="path224"
                   style="fill:#f5f5f5;fill-opacity:1;fill-rule:nonzero;stroke:none"
                   d="m 0,0 c -2.591,0.946 -4.408,2.894 -6.294,4.781 -31.41,31.429 -62.829,62.848 -94.262,94.253 -1.402,1.401 -2.959,2.647 -4.443,3.965 3.27,10.425 9.732,14.486 21.11,13.279 11.84,-1.256 23.917,-0.283 35.89,-0.285 0.169,-2.057 -1.511,-2.047 -2.69,-2.077 -7.987,-0.205 -15.978,-0.381 -23.963,0.084 -0.484,0.028 -0.932,0.328 -0.956,0.375 1.541,-2.165 3.811,-4.315 6.018,-6.518 27.224,-27.184 54.358,-54.458 81.652,-81.572 0.713,-0.709 1.365,-1.455 1.93,-2.283 C 9.328,16.002 4.664,8.001 0,0" /></g><g
                 id="g230"
                 transform="translate(258.9976,95.0024)"><path
                   id="path228"
                   style="fill:#f5f5f5;fill-opacity:1;fill-rule:nonzero;stroke:none"
                   d="m 0,0 c -2.592,0.945 -4.408,2.894 -6.294,4.781 -31.41,31.428 -62.828,62.848 -94.261,94.253 -1.402,1.401 -2.959,2.646 -4.444,3.964 0.099,0.486 0.144,0.992 0.306,1.456 3.388,9.703 10.043,13.544 20.224,11.621 2.733,-0.516 5.644,-0.082 8.474,-0.085 1.851,-3.593 4.592,-6.45 7.43,-9.276 27.018,-26.9 53.874,-53.964 80.947,-80.81 0.596,-0.591 1.102,-1.244 1.611,-1.902 C 9.328,16.002 4.664,8.001 0,0" /></g><g
                 id="g234"
                 transform="translate(125.9969,478.0024)"><path
                   id="path232"
                   style="fill:#f5f5f5;fill-opacity:1;fill-rule:nonzero;stroke:none"
                   d="m 0,0 c -4.787,2.04 -8.004,6.057 -11.125,9.82 -6.823,8.226 -14.694,15.381 -22.179,22.923 -22.275,22.447 -44.7,44.744 -67.032,67.134 -1.478,1.482 -3.567,2.614 -3.661,5.121 2.916,8.394 8.105,12.944 17.626,11.094 3.017,-0.586 6.243,-0.093 9.374,-0.094 C -55.744,95.149 -34.834,73.955 -13.766,52.92 -4.476,43.644 4.942,34.493 14.009,24.994 10.271,16.141 4.666,8.333 0,0" /></g><g
                 id="g238"
                 transform="translate(125.997,172.0024)"><path
                   id="path236"
                   style="fill:#f5f5f5;fill-opacity:1;fill-rule:nonzero;stroke:none"
                   d="m 0,0 c -2.225,0.866 -3.933,2.406 -5.598,4.073 -31.425,31.46 -62.868,62.903 -94.328,94.328 -1.668,1.666 -3.204,3.377 -4.074,5.599 1.59,3.07 3.153,6.154 4.78,9.203 1.112,2.084 2.766,2.95 5.268,2.855 5.312,-0.202 10.638,-0.066 15.958,-0.068 17.251,-16.835 34.095,-34.079 51.23,-51.03 13.234,-13.093 26.089,-26.57 39.669,-39.315 0.497,-0.466 0.804,-1.05 1.097,-1.647 C 9.335,15.998 4.667,7.999 0,0" /></g><g
                 id="g242"
                 transform="translate(258.9976,249.0024)"><path
                   id="path240"
                   style="fill:#f5f5f5;fill-opacity:1;fill-rule:nonzero;stroke:none"
                   d="m 0,0 c -2.273,0.24 -3.984,1.474 -5.548,3.039 -32.767,32.784 -65.544,65.557 -98.307,98.345 -0.459,0.46 -0.765,1.072 -1.142,1.613 6.052,12 6.052,12.001 19.595,12.003 2.468,0.001 4.936,-0.001 7.404,-0.002 C -61.885,99.306 -46.147,83.239 -30.206,67.376 -18.633,55.858 -7.098,44.302 4.427,32.737 7.483,29.671 10.534,26.61 14,23.998 9.333,15.998 4.667,7.999 0,0" /></g><g
                 id="g246"
                 transform="translate(258.9949,401.0045)"><path
                   id="path244"
                   style="fill:#f5f5f5;fill-opacity:1;fill-rule:nonzero;stroke:none"
                   d="m 0,0 c -3.195,1.846 -5.856,4.319 -8.452,6.92 -30.841,30.892 -61.72,61.746 -92.572,92.626 -1.402,1.404 -2.65,2.962 -3.97,4.448 1.604,2.862 3.306,5.673 4.781,8.6 1.269,2.518 3.116,3.519 5.93,3.445 5.426,-0.143 10.858,-0.043 16.288,-0.044 16.112,-15.691 31.851,-31.758 47.791,-47.622 C -18.513,56.738 -6.859,45.066 4.782,33.38 7.72,30.431 10.684,27.521 14.004,24.997 9.336,16.664 4.668,8.332 0,0" /></g><g
                 id="g250"
                 transform="translate(391.9976,632.0013)"><path
                   id="path248"
                   style="fill:#f5f5f5;fill-opacity:1;fill-rule:nonzero;stroke:none"
                   d="m 0,0 c -2.273,0.242 -3.984,1.475 -5.548,3.04 -32.768,32.785 -65.546,65.559 -98.309,98.348 -0.459,0.459 -0.765,1.072 -1.143,1.613 1.59,3.07 3.152,6.154 4.78,9.204 1.112,2.082 2.765,2.944 5.267,2.857 5.646,-0.196 11.303,-0.062 16.955,-0.063 C -61.887,99.308 -46.149,83.243 -30.21,67.38 -18.519,55.746 -6.867,44.073 4.774,32.389 7.712,29.44 10.674,26.529 13.992,24.002 9.328,16.002 4.664,8.001 0,0" /></g><g
                 id="g254"
                 transform="translate(391.9976,479.0012)"><path
                   id="path252"
                   style="fill:#f5f5f5;fill-opacity:1;fill-rule:nonzero;stroke:none"
                   d="m 0,0 c -2.676,0.262 -4.472,1.958 -6.256,3.743 -31.712,31.732 -63.439,63.448 -95.147,95.183 -1.278,1.279 -2.402,2.712 -3.598,4.074 1.59,3.07 3.152,6.155 4.78,9.204 1.112,2.082 2.764,2.946 5.267,2.858 5.646,-0.196 11.304,-0.062 16.956,-0.063 C -61.416,98.836 -45.211,82.295 -28.794,65.966 -19.227,56.449 -9.701,46.891 -0.165,37.342 4.419,32.752 8.918,28.074 13.991,24.003 9.327,16.002 4.664,8.001 0,0" /></g><g
                 id="g258"
                 transform="translate(126.0031,18.9976)"><path
                   id="path256"
                   style="fill:#f5f5f5;fill-opacity:1;fill-rule:nonzero;stroke:none"
                   d="m 0,0 c -1.013,0.847 -2.1,1.621 -3.03,2.55 -32.82,32.795 -65.628,65.603 -98.422,98.423 -0.93,0.93 -1.704,2.016 -2.551,3.029 C -97.955,116 -97.955,116 -84.6,116 c 21.306,0.001 42.612,0.023 63.917,-0.033 1.904,-0.005 4.031,0.761 5.679,-0.965 -1.702,-1.744 -3.939,-1.5 -6.045,-1.515 -5.773,-0.04 -11.548,-0.146 -17.309,0.067 -11.755,0.406 -23.518,0.115 -35.628,0.21 0.309,-2.506 1.995,-3.462 3.186,-4.654 27.491,-27.506 54.941,-55.052 82.508,-82.482 0.828,-0.823 1.647,-1.64 2.285,-2.623 C 10.218,15.485 5.138,7.725 0,0" /></g><g
                 id="g262"
                 transform="translate(125.9969,325.0024)"><path
                   id="path260"
                   style="fill:#f5f5f5;fill-opacity:1;fill-rule:nonzero;stroke:none"
                   d="m 0,0 c -3.191,1.847 -5.852,4.315 -8.446,6.914 -29.521,29.572 -59.067,59.119 -88.64,88.639 -2.599,2.595 -5.064,5.258 -6.913,8.447 1.59,3.07 3.153,6.154 4.78,9.204 1.112,2.085 2.769,2.935 5.268,2.855 5.98,-0.193 11.969,-0.066 17.954,-0.068 0.861,-3.129 2.695,-5.573 4.987,-7.858 C -44.881,82.086 -18.792,55.998 7.251,29.866 9.375,27.735 11.992,26.225 14.002,23.998 9.798,15.728 5.036,7.784 0,0" /></g><g
                 id="g266"
                 transform="translate(391.0024,324.9976)"><path
                   id="path264"
                   style="fill:#f5f5f5;fill-opacity:1;fill-rule:nonzero;stroke:none"
                   d="m 0,0 c -2.216,0.868 -3.925,2.397 -5.586,4.061 -31.699,31.734 -63.425,63.441 -95.122,95.177 -1.366,1.369 -3.254,2.449 -3.294,4.764 6.05,12 6.05,12.001 19.54,12 2.487,0 4.973,-0.003 7.459,-0.005 -0.253,-3.28 1.555,-5.417 3.733,-7.626 27.978,-28.385 55.576,-57.148 84.17,-84.923 0.675,-0.656 1.667,-1.219 1.102,-2.453 C 9.002,13.424 4.721,6.586 0,0" /></g><g
                 id="g270"
                 transform="translate(403.0042,345.9923)"><path
                   id="path268"
                   style="fill:#f3f3f3;fill-opacity:1;fill-rule:nonzero;stroke:none"
                   d="M 0,0 C -7.14,6.974 -14.328,13.9 -21.409,20.934 -33.233,32.678 -45.267,44.229 -56.691,56.353 -67.196,67.502 -77.87,78.471 -88.81,89.18 c -2.311,2.262 -1.888,3.823 -0.194,5.822 12.001,-10e-4 24.001,-0.002 36.002,-0.004 4.308,-5.756 9.745,-10.444 14.74,-15.547 14.774,-15.09 30.13,-29.605 44.577,-45.021 0.465,-0.496 0.952,-0.917 1.672,-0.434 1.724,-2.79 3.417,-5.6 5.184,-8.363 1.043,-1.631 0.735,-3.131 -0.196,-4.638 C 8.651,13.996 4.325,6.998 0,0" /></g><g
                 id="g274"
                 transform="translate(272.9977,273)"><path
                   id="path272"
                   style="fill:#f2f2f2;fill-opacity:1;fill-rule:nonzero;stroke:none"
                   d="m 0,0 c -2.304,-0.337 -3.658,1.145 -5.09,2.578 -28.102,28.122 -56.218,56.229 -84.322,84.349 -1.156,1.156 -2.611,2.153 -2.586,4.073 12.667,0.001 25.333,0.002 37.999,0.002 C -36.441,73.833 -19.258,56.287 -1.8,39.018 -0.66,37.891 0.129,36.234 2.002,36 4.729,31.527 7.46,27.056 10.182,22.579 11.217,20.874 11.209,19.162 10.197,17.436 6.792,11.628 3.398,5.813 0,0" /></g><g
                 id="g278"
                 transform="translate(139.9994,196)"><path
                   id="path276"
                   style="fill:#f2f2f2;fill-opacity:1;fill-rule:nonzero;stroke:none"
                   d="m 0,0 c -2.216,0.866 -3.924,2.396 -5.585,4.059 -27.696,27.733 -55.421,55.438 -83.115,83.173 -1.366,1.368 -3.256,2.445 -3.297,4.761 12.667,-10e-4 25.334,-0.002 38,-0.003 C -36.077,74.951 -19.255,56.831 -1.963,39.173 -0.124,37.294 1.482,35.112 3.998,34 4.783,32.761 5.414,31.385 6.377,30.304 12.462,23.475 11.578,16.932 6.146,10.128 3.702,7.068 2.025,3.395 0,0" /></g><g
                 id="g282"
                 transform="translate(139.9994,349)"><path
                   id="path280"
                   style="fill:#f2f2f2;fill-opacity:1;fill-rule:nonzero;stroke:none"
                   d="m 0,0 c -2.676,0.263 -4.473,1.958 -6.257,3.744 -27.016,27.037 -54.054,54.052 -81.055,81.103 -1.92,1.923 -4.58,3.722 -2.687,7.147 12,-0.001 24.001,-0.003 36.001,-0.004 1.803,-3.418 4.345,-6.217 7.068,-8.938 C -30.548,66.68 -14.06,50.415 2.156,33.877 2.971,33.047 3.72,32.123 5.001,32.001 5.248,31.782 5.529,31.592 5.735,31.34 11.253,24.618 12.698,17.94 6.433,10.62 3.778,7.517 2.114,3.566 0,0" /></g><g
                 id="g286"
                 transform="translate(6.9962,578.0024)"><path
                   id="path284"
                   style="fill:#f2f2f2;fill-opacity:1;fill-rule:nonzero;stroke:none"
                   d="m 0,0 c -4.976,1.652 -6.927,6.491 -10.284,9.836 -25.079,24.986 -50.093,50.036 -75.116,75.078 -1.742,1.744 -4.789,3.617 -3.963,5.893 0.956,2.635 4.414,1.026 6.738,1.121 5.309,0.219 10.634,0.031 15.952,0.093 1.595,0.018 3.37,-0.549 4.676,0.971 9.284,0.002 18.569,0.037 27.853,-0.024 1.745,-0.011 3.69,0.651 5.165,-0.962 -2.289,-2.006 -5.068,-1.084 -7.642,-1.205 -4.759,-0.223 -9.546,0.222 -14.347,-0.276 0.11,-2.068 1.562,-2.835 2.567,-3.846 C -31.656,69.831 -14.767,53.127 1.921,36.222 2.524,35.611 3.135,35.106 4.009,35.004 7.228,31.815 8.449,27.37 11.063,23.792 13.108,20.993 10.919,18.746 9.706,16.57 6.59,10.98 3.25,5.515 0,0" /></g><g
                 id="g290"
                 transform="translate(7.0064,118.9951)"><path
                   id="path288"
                   style="fill:#f2f2f2;fill-opacity:1;fill-rule:nonzero;stroke:none"
                   d="m 0,0 c -2.217,0.869 -3.928,2.398 -5.591,4.063 -26.783,26.82 -53.6,53.605 -80.369,80.439 -2.001,2.007 -4.998,3.801 -3.046,7.497 12.001,-10e-4 24.001,-0.003 36.002,-0.004 1.797,-3.402 4.313,-6.202 7.035,-8.905 C -30.545,67.771 -15.217,52.355 0.197,37.024 1.332,35.896 2.118,34.232 4,34.014 c 0.416,-0.5 0.906,-0.956 1.236,-1.507 8.86,-14.802 8.51,-9.476 0.49,-23.31 C 3.916,6.075 2.697,2.573 0,0" /></g><g
                 id="g294"
                 transform="translate(6.9943,425.0039)"><path
                   id="path292"
                   style="fill:#f2f2f2;fill-opacity:1;fill-rule:nonzero;stroke:none"
                   d="m 0,0 c -2.226,0.865 -3.933,2.407 -5.598,4.074 -27.423,27.459 -54.864,54.9 -82.323,82.323 -1.668,1.666 -3.206,3.376 -4.074,5.599 12.334,0.001 24.667,0.001 37,0.001 5.12,-4.495 9.639,-9.598 14.497,-14.359 C -25.785,63.217 -11.573,48.292 3.394,34.126 3.88,33.666 4.363,33.223 5.007,32.997 5.252,32.78 5.526,32.586 5.739,32.341 12.243,24.854 12.719,17.45 5.976,9.672 3.526,6.845 1.966,3.246 0,0" /></g><g
                 id="g298"
                 transform="translate(272.9988,426.0012)"><path
                   id="path296"
                   style="fill:#f2f2f2;fill-opacity:1;fill-rule:nonzero;stroke:none"
                   d="m 0,0 c -2.304,-0.339 -3.659,1.143 -5.09,2.576 -28.103,28.122 -56.219,56.23 -84.323,84.349 -1.156,1.156 -2.611,2.154 -2.586,4.074 12.667,0 25.334,0.001 38,0.001 18.108,-17.621 34.862,-36.575 53.19,-53.978 1.167,-1.108 1.932,-2.79 3.813,-3.02 C 6.286,30.618 7.706,26.073 10.31,22.26 11.764,20.131 10.692,18.094 9.592,16.21 6.427,10.788 3.202,5.401 0,0" /></g><g
                 id="g302"
                 transform="translate(272.9902,119.0048)"><path
                   id="path300"
                   style="fill:#f2f2f2;fill-opacity:1;fill-rule:nonzero;stroke:none"
                   d="m 0,0 c -2.127,-0.001 -3.159,1.687 -4.421,2.948 -27.551,27.523 -55.074,55.073 -82.645,82.577 -1.85,1.845 -3.405,3.646 -2.922,6.463 12.667,-0.001 25.333,-0.002 38,-0.003 0.73,-3.383 2.899,-5.778 5.278,-8.142 C -32.456,69.682 -18.28,55.442 -4.055,41.251 -1.828,39.03 0.267,36.643 3.007,34.995 3.344,34.641 3.768,34.338 4.004,33.926 11.966,20.048 11.957,20.051 3.693,6.421 2.413,4.31 1.228,2.142 0,0" /></g><g
                 id="g306"
                 transform="translate(272.9904,579.0037)"><path
                   id="path304"
                   style="fill:#f2f2f2;fill-opacity:1;fill-rule:nonzero;stroke:none"
                   d="m 0,0 c -2.123,0 -3.155,1.684 -4.415,2.943 -27.514,27.485 -55.013,54.984 -82.497,82.498 -1.373,1.374 -3.154,2.52 -3.356,5.555 7.569,0 15.087,-0.053 22.604,0.038 1.904,0.023 4.024,-0.757 5.673,0.957 9.279,0.002 18.559,0.038 27.838,-0.025 1.74,-0.012 3.689,0.668 5.152,-0.972 -2.302,-1.98 -5.082,-1.083 -7.665,-1.209 -4.735,-0.229 -9.506,0.268 -15.248,-0.42 C -33.35,70.278 -14.833,52.463 3.024,34.001 6.533,30.383 8.384,25.745 10.693,21.4 11.457,19.962 10.682,18.623 9.868,17.248 6.493,11.549 3.275,5.758 0,0" /></g><g
                 id="g310"
                 transform="translate(7.9918,273.0024)"><path
                   id="path308"
                   style="fill:#f2f2f2;fill-opacity:1;fill-rule:nonzero;stroke:none"
                   d="m 0,0 c -2.306,-0.341 -3.657,1.148 -5.088,2.58 -28.101,28.12 -56.216,56.226 -84.319,84.344 -1.155,1.156 -2.61,2.154 -2.585,4.074 12.333,0 24.666,10e-4 36.999,0.002 C -36.782,73.183 -18.945,54.99 -0.869,37.037 0.313,35.863 1.345,34.539 3.007,33.995 3.343,33.642 3.768,33.339 4.004,32.928 11.696,19.526 11.685,19.529 3.689,6.417 2.405,4.311 1.227,2.141 0,0" /></g><g
                 id="g314"
                 transform="translate(405.9895,656.0037)"><path
                   id="path312"
                   style="fill:#f2f2f2;fill-opacity:1;fill-rule:nonzero;stroke:none"
                   d="m 0,0 c -2.307,-0.343 -3.657,1.149 -5.087,2.58 -28.101,28.12 -56.215,56.226 -84.318,84.343 -1.155,1.156 -2.61,2.154 -2.585,4.074 12.334,0 24.667,0 37,0 17.894,-17.502 35.411,-35.384 53.204,-52.987 1.137,-1.126 1.924,-2.784 3.8,-3.008 C 5.429,31.301 7.017,26.469 9.831,22.398 11.032,20.658 10.693,19.047 9.708,17.32 6.43,11.571 3.23,5.777 0,0" /></g><g
                 id="g318"
                 transform="translate(405.9883,503.0046)"><path
                   id="path316"
                   style="fill:#f2f2f2;fill-opacity:1;fill-rule:nonzero;stroke:none"
                   d="m 0,0 c -2.677,0.261 -4.47,1.961 -6.253,3.746 -27.595,27.615 -55.206,55.214 -82.798,82.833 -1.259,1.261 -2.938,2.296 -2.937,4.417 h 37 C -37.095,73.493 -19.578,55.612 -1.785,38.008 -0.648,36.883 0.139,35.224 2.016,35.002 5.428,31.3 7.02,26.47 9.832,22.397 11.033,20.658 10.695,19.047 9.709,17.319 6.431,11.57 3.23,5.777 0,0" /></g><g
                 id="g322"
                 transform="translate(140.0055,502.9968)"><path
                   id="path320"
                   style="fill:#f2f2f2;fill-opacity:1;fill-rule:nonzero;stroke:none"
                   d="m 0,0 c -2.122,0.003 -3.161,1.681 -4.424,2.942 -27.893,27.866 -55.773,55.746 -83.639,83.64 -1.26,1.262 -2.942,2.298 -2.943,4.422 12.334,0 24.667,0 37,0 17.893,-17.507 35.428,-35.373 53.184,-53.017 1.152,-1.145 1.963,-2.732 3.816,-2.985 2.674,-4.362 5.34,-8.73 8.029,-13.084 0.769,-1.245 0.909,-2.456 0.052,-3.712 C 7.064,12.332 4.567,5.536 0,0" /></g><g
                 id="g326"
                 transform="translate(139.9958,43.0024)"><path
                   id="path324"
                   style="fill:#f2f2f2;fill-opacity:1;fill-rule:nonzero;stroke:none"
                   d="m 0,0 c -1.921,-0.028 -2.916,1.431 -4.071,2.585 -27.995,27.979 -55.984,55.963 -83.949,83.971 -1.009,1.01 -2.971,1.96 -2.384,3.46 0.741,1.896 2.945,0.927 4.481,0.939 10.643,0.08 21.286,0.041 31.929,0.04 C -37.546,74.931 -21.452,58.512 -5.145,42.306 -2.553,39.73 0.017,37.131 3.005,34.998 5.677,30.64 8.319,26.264 11.036,21.935 11.968,20.45 11.722,19.137 10.882,17.768 7.249,11.849 3.627,5.923 0,0" /></g><g
                 id="g330"
                 transform="translate(140.0055,655.9968)"><path
                   id="path328"
                   style="fill:#f2f2f2;fill-opacity:1;fill-rule:nonzero;stroke:none"
                   d="m 0,0 c -2.122,0.003 -3.161,1.681 -4.424,2.942 -27.893,27.866 -55.773,55.746 -83.639,83.64 -1.261,1.262 -2.942,2.298 -2.943,4.422 12.334,0 24.667,0 37,0 C -36.113,73.497 -18.579,55.632 -0.823,37.988 0.33,36.842 1.141,35.255 2.993,35.002 5.689,30.461 8.304,25.869 11.127,21.409 12.06,19.936 11.538,18.835 10.849,17.752 7.125,11.899 4.352,5.466 0,0" /></g><g
                 id="g334"
                 transform="translate(272.9915,732.0034)"><path
                   id="path332"
                   style="fill:#f2f2f2;fill-opacity:1;fill-rule:nonzero;stroke:none"
                   d="m 0,0 c -1.921,-0.027 -2.915,1.433 -4.07,2.587 -27.993,27.978 -55.981,55.961 -83.946,83.968 -1.009,1.01 -2.971,1.96 -2.384,3.461 0.741,1.895 2.945,0.926 4.481,0.938 10.642,0.08 21.285,0.042 31.928,0.042 17.56,-17.167 34.741,-34.715 52.2,-51.983 1.138,-1.127 1.925,-2.788 3.805,-3.009 3.462,-3.839 5.231,-8.72 7.973,-13.003 1.259,-1.967 1.131,-3.773 -0.213,-5.937 C 6.317,11.499 3.233,5.703 0,0" /></g><g
                 id="g338"
                 transform="translate(537.9976,732.0007)"><path
                   id="path336"
                   style="fill:#f2f2f2;fill-opacity:1;fill-rule:nonzero;stroke:none"
                   d="m 0,0 c -1.92,-0.026 -2.916,1.43 -4.072,2.585 -27.994,27.979 -55.982,55.963 -83.948,83.97 -1.01,1.011 -2.971,1.962 -2.388,3.461 0.739,1.899 2.944,0.928 4.48,0.94 10.309,0.082 20.62,0.043 30.93,0.043 2.938,-1.479 4.491,-4.383 6.715,-6.591 C -34.109,70.341 -20.018,56.19 -5.89,42.076 -2.721,38.91 0.901,36.234 4.01,33.001 7.182,29.944 8.268,25.565 10.884,22.147 12.147,20.496 11.08,18.977 10.259,17.559 6.863,11.693 3.423,5.851 0,0" /></g><g
                 id="g342"
                 transform="translate(14.0015,761.0003)"><path
                   id="path340"
                   style="fill:#f0f0f0;fill-opacity:1;fill-rule:nonzero;stroke:none"
                   d="m 0,0 c -2.685,0.262 -4.484,1.965 -6.272,3.756 -17.897,17.921 -35.817,35.82 -53.705,53.749 -1.022,1.024 -2.975,1.996 -2.459,3.462 0.691,1.962 2.921,0.967 4.454,0.988 7.33,0.101 14.662,0.049 21.994,0.052 4.321,-4.455 6.502,-10.269 9.568,-15.488 C -17.389,31.145 -8.776,15.524 0,0" /></g><g
                 id="g346"
                 transform="translate(410.9916,379.9883)"><path
                   id="path344"
                   style="fill:#f0f0f0;fill-opacity:1;fill-rule:nonzero;stroke:none"
                   d="m 0,0 c -1.496,-1.723 -2.343,-0.096 -3.166,0.724 -18.667,18.622 -37.3,37.278 -55.965,55.902 -1.251,1.248 -2.065,2.566 -1.858,4.376 7.142,0.003 14.292,-0.193 21.423,0.098 3.32,0.136 5.246,-1.104 6.778,-3.809 C -24.142,42.018 -15.45,26.772 -6.751,11.529 -4.543,7.662 -2.253,3.842 0,0" /></g><g
                 id="g350"
                 transform="translate(145.0006,381.0012)"><path
                   id="path348"
                   style="fill:#f0f0f0;fill-opacity:1;fill-rule:nonzero;stroke:none"
                   d="m 0,0 c -1.842,-1.904 -2.648,0.211 -3.511,1.071 -17.781,17.7 -35.494,35.47 -53.283,53.162 -1.689,1.679 -2.477,3.451 -2.205,5.756 6.986,0.003 13.974,-0.111 20.955,0.066 2.88,0.073 4.448,-0.966 5.859,-3.489 C -21.919,38.208 -11.488,19.943 -1.101,1.652 -0.775,1.078 -0.369,0.55 0,0" /></g><g
                 id="g354"
                 transform="translate(12.0011,458.0012)"><path
                   id="path352"
                   style="fill:#f0f0f0;fill-opacity:1;fill-rule:nonzero;stroke:none"
                   d="m 0,0 c -2.765,-0.195 -4.292,1.836 -5.934,3.472 -16.927,16.862 -33.801,33.778 -50.72,50.648 -1.442,1.438 -2.544,3.039 -3.348,4.88 7.481,0.002 14.965,-0.113 22.441,0.065 2.847,0.068 4.408,-0.844 5.843,-3.398 C -21.254,37.05 -10.596,18.542 0,0" /></g><g
                 id="g358"
                 transform="translate(11.0067,153.0091)"><path
                   id="path356"
                   style="fill:#f0f0f0;fill-opacity:1;fill-rule:nonzero;stroke:none"
                   d="m 0,0 c -1.485,-1.749 -2.346,-0.13 -3.176,0.698 -17.33,17.283 -34.614,34.613 -51.965,51.874 -1.599,1.591 -2.029,3.336 -1.864,5.409 6.801,0.003 13.603,-0.067 20.403,0.047 2.612,0.043 4.364,-0.844 5.66,-3.153 C -20.663,36.564 -10.322,18.287 0,0" /></g><g
                 id="g362"
                 transform="translate(542.0073,765.002)"><path
                   id="path360"
                   style="fill:#f0f0f0;fill-opacity:1;fill-rule:nonzero;stroke:none"
                   d="m 0,0 c -3.846,1.372 -6.646,4.254 -9.414,6.989 -14.889,14.711 -29.623,29.577 -44.464,44.335 -2.027,2.015 -3.573,4.332 -5.129,6.674 3.666,0 7.333,0 11,0.001 4.999,0.786 9.998,0.788 14.997,-0.002 C -24.346,43.005 -15.655,28.029 -7.036,13.012 -4.582,8.737 -2.339,4.341 0,0" /></g><g
                 id="g366"
                 transform="translate(11.005,613.0068)"><path
                   id="path364"
                   style="fill:#f0f0f0;fill-opacity:1;fill-rule:nonzero;stroke:none"
                   d="m 0,0 c -1.839,-1.913 -2.649,0.202 -3.513,1.063 -17.442,17.36 -34.835,34.769 -52.224,52.182 -0.789,0.791 -2.175,1.555 -1.729,2.782 0.585,1.612 2.3,0.925 3.527,0.937 6.983,0.063 13.967,0.034 20.951,0.037 4.209,-4.337 6.331,-9.995 9.31,-15.08 C -15.567,28.075 -7.864,13.99 0,0" /></g><g
                 id="g370"
                 transform="translate(10.9988,306.9976)"><path
                   id="path368"
                   style="fill:#f0eff0;fill-opacity:1;fill-rule:nonzero;stroke:none"
                   d="m 0,0 c -2.279,-1.065 -3.311,0.87 -4.486,2.041 -17.122,17.049 -34.197,34.145 -51.281,51.233 -1.054,1.054 -2.268,2.02 -2.233,3.731 6.999,10e-4 14,-0.115 20.994,0.06 2.948,0.074 4.765,-0.621 6.34,-3.447 C -21.609,37.373 -12.291,21.273 -3.053,5.129 -2.065,3.403 -1.019,1.709 0,0" /></g><g
                 id="g374"
                 transform="translate(276.0024,460.0037)"><path
                   id="path372"
                   style="fill:#f0f0f0;fill-opacity:1;fill-rule:nonzero;stroke:none"
                   d="m 0,0 c -1.839,-1.908 -2.655,0.2 -3.509,1.066 -17.356,17.608 -34.658,35.269 -51.979,52.912 -0.839,0.855 -1.527,1.753 -1.514,3.02 6.665,0.001 13.34,-0.207 19.992,0.093 3.306,0.15 5.304,-1.012 6.838,-3.744 C -21.389,37.704 -12.564,22.086 -3.744,6.464 -2.52,4.296 -1.249,2.154 0,0" /></g><g
                 id="g378"
                 transform="translate(408.0047,538.0065)"><path
                   id="path376"
                   style="fill:#f0f0f0;fill-opacity:1;fill-rule:nonzero;stroke:none"
                   d="m 0,0 c -1.489,-1.747 -2.348,-0.123 -3.177,0.703 -17.451,17.406 -34.872,34.842 -52.305,52.266 -0.85,0.849 -1.535,1.755 -1.523,3.025 7.305,0.002 14.61,-0.041 21.913,0.034 2.137,0.022 3.683,-0.331 4.877,-2.467 C -20.213,35.669 -10.088,17.845 0,0" /></g><g
                 id="g382"
                 transform="translate(275.9976,154)"><path
                   id="path380"
                   style="fill:#f0eff0;fill-opacity:1;fill-rule:nonzero;stroke:none"
                   d="m 0,0 c -2.674,0.264 -4.472,1.957 -6.255,3.743 -15.608,15.634 -31.204,31.282 -46.896,46.831 -1.959,1.941 -3.14,3.723 -1.845,6.416 4.974,0.003 10.048,-0.619 14.897,0.161 6.722,1.083 9.234,-2.793 11.949,-7.661 C -18.907,32.915 -9.404,16.485 0,0" /></g><g
                 id="g386"
                 transform="translate(408.004,691.0054)"><path
                   id="path384"
                   style="fill:#f0f0f0;fill-opacity:1;fill-rule:nonzero;stroke:none"
                   d="m 0,0 c -1.49,-1.746 -2.348,-0.121 -3.177,0.705 -17.451,17.406 -34.872,34.842 -52.305,52.266 -0.849,0.849 -1.535,1.754 -1.522,3.025 6.987,10e-4 13.977,-0.103 20.961,0.055 3.027,0.068 4.892,-0.99 6.392,-3.666 C -19.842,34.881 -9.899,17.453 0,0" /></g><g
                 id="g390"
                 transform="translate(143.9976,230)"><path
                   id="path388"
                   style="fill:#f0f0f0;fill-opacity:1;fill-rule:nonzero;stroke:none"
                   d="m 0,0 c -1.585,-0.127 -2.889,0.352 -4.035,1.523 -17.689,18.074 -35.406,36.121 -53.076,54.213 -0.52,0.532 -0.599,1.493 -0.884,2.254 6.963,0.003 13.928,-0.101 20.887,0.062 2.827,0.067 4.459,-0.848 5.886,-3.401 C -21.789,37.777 -12.172,21.006 -2.601,4.21 -1.785,2.777 -0.869,1.402 0,0" /></g><g
                 id="g394"
                 transform="translate(143.0006,78)"><path
                   id="path392"
                   style="fill:#f0eff0;fill-opacity:1;fill-rule:nonzero;stroke:none"
                   d="m 0,0 c -2.645,-0.345 -4.072,1.628 -5.599,3.148 -16.42,16.341 -32.787,32.736 -49.165,49.119 -1.054,1.054 -2.273,2.018 -2.235,3.731 8.333,0 16.665,0.001 24.997,0.002 6.283,-10.886 12.595,-21.755 18.839,-32.664 C -8.727,15.585 -4.384,7.78 0,0" /></g><g
                 id="g398"
                 transform="translate(142.9994,537.9988)"><path
                   id="path396"
                   style="fill:#f0f0f0;fill-opacity:1;fill-rule:nonzero;stroke:none"
                   d="m 0,0 c -1.497,-1.739 -2.35,-0.107 -3.177,0.717 -17.45,17.404 -34.869,34.838 -52.3,52.261 -0.85,0.848 -1.535,1.754 -1.522,3.024 6.65,0.002 13.313,-0.238 19.946,0.1 3.701,0.189 5.872,-1.213 7.57,-4.242 C -22.028,38.557 -14.517,25.286 -6.998,12.02 -4.712,7.987 -2.335,4.005 0,0" /></g><g
                 id="g402"
                 transform="translate(142.9989,690.9986)"><path
                   id="path400"
                   style="fill:#f0f0f0;fill-opacity:1;fill-rule:nonzero;stroke:none"
                   d="m 0,0 c -1.497,-1.739 -2.35,-0.107 -3.177,0.718 -17.45,17.403 -34.869,34.837 -52.3,52.26 -0.849,0.849 -1.535,1.754 -1.522,3.024 6.65,0.002 13.313,-0.238 19.946,0.101 3.702,0.189 5.881,-1.211 7.569,-4.244 6.286,-11.299 12.61,-22.578 18.986,-33.826 C -7.068,11.982 -3.504,6.008 0,0" /></g><g
                 id="g406"
                 transform="translate(276.0141,613.0044)"><path
                   id="path404"
                   style="fill:#f0f0f0;fill-opacity:1;fill-rule:nonzero;stroke:none"
                   d="m 0,0 c -1.919,-0.04 -2.917,1.411 -4.071,2.564 -16.672,16.656 -33.341,33.316 -49.981,50.005 -1.005,1.007 -2.904,1.899 -2.377,3.466 0.59,1.756 2.612,0.907 3.991,0.924 6.803,0.08 13.609,0.035 20.413,0.034 5.88,-10.343 11.797,-20.665 17.629,-31.035 C -9.546,17.335 -4.795,8.655 0,0" /></g><g
                 id="g410"
                 transform="translate(275.0057,768.0078)"><path
                   id="path408"
                   style="fill:#f0f0f0;fill-opacity:1;fill-rule:nonzero;stroke:none"
                   d="m 0,0 c -1.473,-1.74 -2.335,-0.14 -3.163,0.686 -17.126,17.082 -34.223,34.194 -51.332,51.294 -0.846,0.845 -1.523,1.749 -1.511,3.012 3.333,0 6.666,0.001 9.999,0.001 4.997,0.786 9.994,0.79 14.99,-0.003 5.908,-10.379 11.844,-20.743 17.716,-31.142 C -8.826,15.922 -4.431,7.951 0,0" /></g><g
                 id="g414"
                 transform="translate(275,309)"><path
                   id="path412"
                   style="fill:#f0f0f0;fill-opacity:1;fill-rule:nonzero;stroke:none"
                   d="m 0,0 c -1.481,-1.733 -2.337,-0.123 -3.162,0.7 -17.126,17.081 -34.222,34.191 -51.33,51.29 -0.845,0.845 -1.52,1.75 -1.509,3.012 7.158,0.002 14.317,-0.04 21.474,0.03 2.182,0.021 3.685,-0.525 4.858,-2.616 C -19.844,34.908 -9.905,17.464 0,0" /></g><g
                 id="g418"
                 transform="translate(508.9973,822.9993)"><path
                   id="path416"
                   style="fill:#f2f2f2;fill-opacity:1;fill-rule:nonzero;stroke:none"
                   d="m 0,0 c -4.999,0 -9.998,0.001 -14.997,0.001 0,0.332 0,0.663 0.002,0.994 C -10.012,0.431 -4.874,2.203 0,0" /></g><g
                 id="g422"
                 transform="translate(243.989,822.9979)"><path
                   id="path420"
                   style="fill:#f2f2f2;fill-opacity:1;fill-rule:nonzero;stroke:none"
                   d="m 0,0 c -4.997,0.001 -9.993,0.002 -14.99,0.003 0,0.331 0.002,0.662 0.003,0.993 C -10.007,0.431 -4.871,2.206 0,0" /></g></g></g></g></g></g></g></svg>