<?xml version="1.0" encoding="UTF-8" standalone="no"?>
<svg
   xmlns:dc="http://purl.org/dc/elements/1.1/"
   xmlns:cc="http://creativecommons.org/ns#"
   xmlns:rdf="http://www.w3.org/1999/02/22-rdf-syntax-ns#"
   xmlns:svg="http://www.w3.org/2000/svg"
   xmlns="http://www.w3.org/2000/svg"
   viewBox="0 0 793.70667 1122.52"
   height="1920"
   width="812"
   xml:space="preserve"
   id="svg2"
   version="1.1"><metadata
     id="metadata8"><rdf:RDF><cc:Work
         rdf:about=""><dc:format>image/svg+xml</dc:format><dc:type
           rdf:resource="http://purl.org/dc/dcmitype/StillImage" /></cc:Work></rdf:RDF></metadata><defs
     id="defs6"><clipPath
       id="clipPath18"
       clipPathUnits="userSpaceOnUse"><path
         id="path16"
         d="M 0,841.89 H 595.28 V 0 H 0 Z" /></clipPath><clipPath
       id="clipPath26"
       clipPathUnits="userSpaceOnUse"><path
         id="path24"
         d="M -661.097,826.255 H 1259.12 V 13.9022 H -661.097 Z" /></clipPath></defs><g
     transform="matrix(1.3333333,0,0,-1.3333333,0,1122.52)"
     id="g10"><g
       id="g12"><g
         clip-path="url(#clipPath18)"
         id="g14"><g
           id="g20"><g
             id="g22" /><g
             id="g54"><g
               id="g52"
               clip-path="url(#clipPath26)"><g
                 id="g30"
                 transform="translate(-661,445)"><path
                   id="path28"
                   style="fill:#fefefe;fill-opacity:1;fill-rule:nonzero;stroke:none"
                   d="m 0,0 c 0,125.306 0.021,250.612 -0.095,375.918 -0.004,4.011 0.559,5.21 5.011,5.209 636.862,-0.133 1273.724,-0.126 1910.586,-0.189 1.463,0 3.389,1.153 4.498,-0.938 -1.318,-1.583 -3.112,-2.458 -4.905,-3.354 -36.792,-18.367 -73.906,-36.075 -110.781,-54.274 -26.718,-13.186 -53.542,-26.166 -80.346,-39.18 -16.775,-8.145 -33.301,-16.819 -50.24,-24.587 -29.06,-13.327 -57.565,-27.768 -86.308,-41.734 -28.749,-13.97 -57.434,-28.069 -86.166,-42.073 -24.54,-11.961 -49.125,-23.83 -73.579,-35.968 -14.523,-7.798 -29.514,-14.653 -44.358,-21.798 -7.193,-3.462 -14.544,-6.661 -21.668,-10.232 -21.883,-10.967 -43.998,-21.455 -65.945,-32.289 -32.694,-16.139 -65.525,-32 -98.25,-48.076 -28.392,-13.948 -56.845,-27.771 -85.263,-41.666 -29.464,-14.407 -58.917,-28.838 -88.401,-43.203 -27.688,-13.491 -55.427,-26.876 -83.008,-40.581 -4.924,-2.48 -10.147,-4.314 -15.007,-6.935 -1.504,-0.694 -2.976,-1.453 -4.441,-2.227 -8.559,-4.195 -17.023,-8.581 -25.578,-12.786 -0.865,-0.442 -1.731,-0.881 -2.593,-1.332 -20.346,-9.175 -40.149,-19.475 -60.201,-29.25 -37.418,-18.241 -74.847,-36.462 -112.194,-54.851 -28.979,-14.269 -58.052,-28.35 -87.066,-42.55 -29.015,-14.2 -58.046,-28.369 -87.071,-42.548 -27.977,-13.668 -55.963,-27.318 -83.937,-40.992 -27.675,-13.527 -55.467,-26.815 -83.028,-40.578 -1.625,-0.811 -3.218,-1.809 -5.173,-1.575 -2.043,0.582 -3.262,2.248 -4.66,3.645 C 247.977,-249.158 126.133,-127.31 4.273,-5.478 2.611,-3.817 1.103,-2.077 0,0" /></g><g
                 id="g34"
                 transform="translate(1259,816)"><path
                   id="path32"
                   style="fill:#fefefe;fill-opacity:1;fill-rule:nonzero;stroke:none"
                   d="m 0,0 c 0,-265.78 -0.014,-531.559 0.122,-797.339 0.002,-4.241 -1.089,-4.76 -4.959,-4.759 -555.054,0.103 -1110.109,0.098 -1665.163,0.098 -0.335,0.513 -0.276,0.976 0.175,1.391 4.791,1.455 9.796,1.567 14.708,2.222 17.21,2.295 33.096,8.519 48.536,16.086 10.899,5.341 21.714,10.854 32.583,16.251 7.01,2.871 13.802,6.21 20.508,9.734 0.426,0.254 0.87,0.471 1.319,0.678 31.446,15.705 63.269,30.633 94.769,46.232 29.105,14.414 58.36,28.533 87.545,42.791 28.136,13.745 56.279,27.478 84.421,41.211 29.94,14.612 59.871,29.242 89.795,43.885 27.98,13.691 55.921,27.467 83.994,40.958 18.166,8.729 35.952,18.242 54.395,26.392 16.558,8.226 33.217,16.245 49.792,24.432 23.746,11.729 47.58,23.283 71.35,34.962 28.401,13.953 56.842,27.832 85.292,41.687 29.05,14.148 58.064,28.369 87.107,42.533 28.893,14.093 57.764,28.231 86.649,42.34 29.035,14.183 58.004,28.503 87.13,42.493 18.165,8.725 35.939,18.261 54.395,26.374 3.435,1.518 6.748,3.292 10.105,4.971 1.443,0.673 2.886,1.348 4.288,2.109 2.674,1.287 5.338,2.594 7.935,4.044 0.413,0.253 0.841,0.466 1.278,0.671 31.939,15.429 63.744,31.125 95.601,46.713 28.567,13.977 57.141,27.939 85.729,41.871 28.738,14.005 57.446,28.071 86.18,42.083 28.734,14.012 57.442,28.078 86.176,42.087 28.437,13.864 56.84,27.794 85.297,41.613 22.166,10.763 44.245,21.709 66.487,32.315 C -4.456,0.085 -2.434,1.828 0,0" /></g><g
                 id="g38"
                 transform="translate(-288.9944,68.9829)"><path
                   id="path36"
                   style="fill:#b81863;fill-opacity:1;fill-rule:nonzero;stroke:none"
                   d="m 0,0 c 0.713,0.525 1.426,1.051 2.139,1.576 25.776,12.728 51.527,25.507 77.335,38.17 28.567,14.016 57.188,27.922 85.781,41.883 29.323,14.318 58.642,28.644 87.962,42.968 28.702,14.021 57.403,28.043 86.103,42.068 28.739,14.044 57.462,28.119 86.216,42.131 29.044,14.154 58.114,28.254 87.184,42.354 2.717,1.318 5.515,2.471 8.275,3.7 1.63,-3.519 -0.046,-6.602 -4.669,-9.004 -7.364,-3.825 -14.723,-7.661 -22.06,-11.537 -1.15,-0.607 -2.448,-1.113 -3.183,-2.33 -7.619,-3.724 -15.251,-7.42 -22.853,-11.178 -21.827,-10.79 -43.597,-21.696 -65.473,-32.385 -24.37,-11.907 -48.865,-23.56 -73.245,-35.446 -18.895,-9.213 -37.66,-18.69 -56.55,-27.913 C 248.299,113.014 223.488,101.272 198.897,89.086 180.05,79.747 161.039,70.75 142.274,61.233 117.792,48.815 92.886,37.236 68.176,25.267 44.106,13.609 20.054,1.914 -4.006,-9.764 -4.638,-5.702 -1.193,-3.313 0,0" /></g><g
                 id="g42"
                 transform="translate(202.0882,300.962)"><path
                   id="path40"
                   style="fill:#bb1863;fill-opacity:1;fill-rule:nonzero;stroke:none"
                   d="m 0,0 c -0.887,2.482 1.656,2.519 2.642,3.067 7.515,4.177 15.319,7.847 22.722,12.205 2.474,1.457 5.855,3.405 4.549,7.599 0.667,0.332 1.334,0.663 2.002,0.995 10.196,1.211 19.007,5.217 26,12.89 1.334,0.656 2.668,1.311 4.002,1.967 6.207,-0.159 10.75,3.179 14.995,7.141 26.365,12.915 52.745,25.799 79.089,38.756 12.781,6.287 25.459,12.785 38.247,19.057 29.3,14.371 58.626,28.687 87.965,42.978 28.43,13.848 56.915,27.582 85.327,41.467 29.028,14.187 57.975,28.539 86.997,42.738 20.64,10.098 41.325,20.106 62.03,30.072 14.075,6.774 28.224,13.395 42.325,20.116 1.733,0.826 3.371,1.851 5.053,2.785 0.77,-4.544 -1.286,-7.107 -5.656,-7.049 -4.192,0.056 -13.008,-6.865 -13.377,-10.502 -0.322,-0.087 -0.644,-0.174 -0.966,-0.261 -3.284,-0.157 -6.324,-0.791 -7.992,-4.099 -1.126,-1.109 -2.401,-1.894 -4.053,-1.854 -3.941,-0.437 -7.595,-1.434 -9.894,-5.073 -8.348,-4.088 -16.707,-8.153 -25.042,-12.267 C 475.283,232.023 453.713,221.085 431.911,210.63 402.427,196.49 373.158,181.916 343.764,167.596 315.114,153.638 286.517,139.573 257.856,125.64 229.178,111.697 200.563,97.628 171.896,83.664 142.501,69.345 113.076,55.094 83.792,40.548 56.716,27.099 29.452,14.029 2.264,0.806 1.548,0.458 0.756,0.265 0,0" /></g><g
                 id="g46"
                 transform="translate(260.0029,337.7183)"><path
                   id="path44"
                   style="fill:#b81863;fill-opacity:1;fill-rule:nonzero;stroke:none"
                   d="m 0,0 c 0.08,-1.37 -0.069,-3.024 -1.139,-3.642 -5.55,-3.21 -10.411,-7.814 -16.978,-9.001 -1.781,-0.322 -3.494,-0.331 -5.065,-1.494 -1.332,-0.986 -2.498,-0.576 -2.818,1.247 8.667,4.297 17.333,8.593 26,12.89" /></g><g
                 id="g50"
                 transform="translate(279.0005,346.8262)"><path
                   id="path48"
                   style="fill:#b81863;fill-opacity:1;fill-rule:nonzero;stroke:none"
                   d="m 0,0 c -0.02,-1.797 0.16,-3.304 -2.416,-4.016 -2.591,-0.716 -4.833,-2.641 -7.286,-3.926 -1.899,-0.994 -3.935,-2.122 -5.294,0.8 C -9.997,-4.761 -4.999,-2.381 0,0" /></g></g></g></g></g></g></g></svg>