<?xml version="1.0" encoding="UTF-8" standalone="no"?>
<svg
   xmlns:dc="http://purl.org/dc/elements/1.1/"
   xmlns:cc="http://creativecommons.org/ns#"
   xmlns:rdf="http://www.w3.org/1999/02/22-rdf-syntax-ns#"
   xmlns:svg="http://www.w3.org/2000/svg"
   xmlns="http://www.w3.org/2000/svg"
   viewBox="0 0 793.70667 1122.52"
   height="885"
   width="1920"
   xml:space="preserve"
   id="svg2"
   version="1.1"><metadata
     id="metadata8"><rdf:RDF><cc:Work
         rdf:about=""><dc:format>image/svg+xml</dc:format><dc:type
           rdf:resource="http://purl.org/dc/dcmitype/StillImage" /></cc:Work></rdf:RDF></metadata><defs
     id="defs6"><clipPath
       id="clipPath18"
       clipPathUnits="userSpaceOnUse"><path
         id="path16"
         d="M 0,841.89 H 595.28 V 0 H 0 Z" /></clipPath><clipPath
       id="clipPath26"
       clipPathUnits="userSpaceOnUse"><path
         id="path24"
         d="M -382.205,749.112 H 979.094 V 90.7946 H -382.205 Z" /></clipPath></defs><g
     transform="matrix(1.3333333,0,0,-1.3333333,0,1122.52)"
     id="g10"><g
       id="g12"><g
         clip-path="url(#clipPath18)"
         id="g14"><g
           id="g20"><g
             id="g22" /><g
             id="g254"><g
               id="g252"
               clip-path="url(#clipPath26)"><g
                 id="g30"
                 transform="translate(-32.0628,722.3364)"><path
                   id="path28"
                   style="fill:#fefefe;fill-opacity:1;fill-rule:nonzero;stroke:none"
                   d="M 0,0 C -0.108,1.953 -1.636,2.77 -3.923,2.61 -5.882,2.473 -6.993,1.363 -6.812,-0.573 -6.605,-2.792 -5.225,-4.162 -2.951,-4.188 -0.618,-4.216 0.057,-2.637 0,0 m 164.573,-37.334 c 2.116,0.036 3.556,0.951 3.362,3.224 -0.19,2.232 -1.611,3.566 -3.88,3.622 -2.02,0.05 -2.868,-1.238 -2.951,-3.145 -0.105,-2.421 1.005,-3.684 3.469,-3.701 M -37.356,-94.413 c -1.682,-0.445 -3.336,-1.43 -3.45,-3.816 -0.098,-2.06 1.161,-3 3.118,-3.081 2.452,-0.102 3.771,1.008 3.711,3.552 -0.046,1.932 -0.86,3.173 -3.379,3.345 m 130.422,42.219 c -0.303,1.721 -1.211,3.393 -3.269,3.573 -2.121,0.185 -3.409,-1.377 -3.612,-3.351 -0.237,-2.304 1.115,-4.016 3.376,-4.089 2.036,-0.065 3.133,1.58 3.505,3.867 M -40.447,-261.475 c -1.973,-0.503 -3.376,-1.651 -3.389,-3.735 -0.013,-2.281 1.313,-3.961 3.629,-3.817 1.985,0.124 3.227,1.715 3.152,3.814 -0.076,2.087 -1.409,3.245 -3.392,3.738 M 69.932,-454.302 c 2.094,0.147 3.644,1.23 3.833,3.231 0.2,2.107 -1.359,3.401 -3.348,3.592 -2.308,0.22 -4.006,-1.144 -4.077,-3.387 -0.065,-2.028 1.587,-3.123 3.592,-3.436 m -195.737,266.918 c -2.073,-0.164 -3.707,-1.213 -3.829,-3.217 -0.141,-2.333 1.555,-3.626 3.823,-3.61 2.073,0.014 3.584,1.374 3.595,3.379 0.012,2.035 -1.584,3.128 -3.589,3.448 m 48.357,-75.801 c 1.986,0.492 3.32,1.654 3.398,3.731 0.079,2.089 -1.149,3.687 -3.14,3.82 -2.335,0.156 -3.622,-1.55 -3.626,-3.811 -0.004,-2.088 1.412,-3.222 3.368,-3.74 m -117.002,142.992 c 1.966,0.505 3.321,1.64 3.398,3.727 0.076,2.094 -1.167,3.68 -3.143,3.818 -2.331,0.164 -3.625,-1.537 -3.627,-3.803 -0.002,-2.09 1.417,-3.218 3.372,-3.742 m 75.32,46.951 c 2.566,0.075 3.609,1.83 3.696,3.55 0.119,2.358 -1.776,3.288 -3.985,3.318 -2.142,0.029 -3.573,-0.948 -3.363,-3.22 0.207,-2.233 1.685,-3.427 3.652,-3.648 m 350.64,-204.23 c -2.143,-0.608 -3.325,-1.943 -3.425,-4.219 -0.106,-2.38 1.494,-3.401 3.363,-3.365 2.218,0.043 3.597,1.654 3.5,3.935 -0.087,2.032 -1.475,3.174 -3.438,3.649 m -159.516,8.799 c -0.038,2.207 -1.201,3.247 -3.373,3.281 -2.475,0.039 -3.56,-1.237 -3.525,-3.63 0.033,-2.22 1.188,-3.257 3.366,-3.275 2.446,-0.021 3.599,1.196 3.532,3.624 m 28.837,-138.623 c 2.536,0.002 3.7,1.78 3.747,3.817 0.048,2.116 -1.772,3.013 -3.797,3.101 -2.656,0.116 -3.458,-1.717 -3.562,-3.845 -0.115,-2.371 1.495,-3.105 3.612,-3.073 m -41.778,194.688 c 0.178,2.277 -1.528,3.523 -3.564,3.768 -2.169,0.262 -3.327,-1.455 -3.296,-3.49 0.033,-2.127 0.843,-3.945 3.478,-3.948 2.256,-0.002 3.338,1.182 3.382,3.67 m -86.024,27.081 c 0.081,2.799 -0.961,4.133 -3.465,4.125 -2.172,-0.006 -3.349,-1.003 -3.459,-3.238 -0.134,-2.711 1.546,-4.096 3.816,-4.191 2.071,-0.087 2.93,1.745 3.108,3.304 m 187.055,-98.503 c 1.862,0.596 3.765,1.15 3.847,3.375 0.094,2.516 -1.351,4.022 -3.869,4.176 -2.314,0.141 -3.343,-1.709 -3.497,-3.452 -0.198,-2.23 1.73,-3.275 3.519,-4.099 m -53.388,197.459 c -0.304,1.945 -1.612,3.007 -3.631,3.183 -2.304,0.201 -3.882,-0.625 -3.973,-3.219 -0.075,-2.113 0.717,-3.465 3.017,-3.695 2.705,-0.27 3.886,1.294 4.587,3.731 m 362.336,-173.976 c 0.102,2.794 -0.928,4.159 -3.444,4.172 -2.175,0.012 -3.371,-0.975 -3.508,-3.226 -0.166,-2.734 1.508,-4.126 3.794,-4.246 2.093,-0.11 2.956,1.727 3.158,3.3 m -546.028,80.55 c 2.085,0.403 3.645,1.576 3.606,3.573 -0.04,2.025 -1.048,3.994 -3.571,3.928 -2.281,-0.06 -3.708,-1.474 -3.823,-3.754 -0.129,-2.564 1.926,-3.154 3.788,-3.747 m -33.039,69.347 c -0.026,2.689 -1.822,3.737 -3.847,3.871 -2.028,0.135 -3.567,-1.417 -3.599,-3.374 -0.034,-2.034 0.968,-3.992 3.481,-4.015 2.328,-0.02 3.538,1.463 3.965,3.518 m 205.029,-41.161 c -0.335,1.416 -1.226,3.392 -3.622,3.184 -2.235,-0.195 -3.305,-1.987 -3.261,-4.291 0.049,-2.592 1.515,-3.475 3.909,-3.322 2.383,0.153 3.062,1.631 2.974,4.429 m 133.317,89.135 c -2.261,-0.206 -3.726,-1.557 -3.976,-3.685 -0.278,-2.368 1.362,-3.7 3.554,-3.847 2.299,-0.154 3.727,1.329 4.023,3.521 0.343,2.544 -1.672,3.288 -3.601,4.011 M -29.986,-329.732 c 0.234,2.285 -1.415,3.585 -3.421,3.874 -2.262,0.326 -3.85,-1.559 -4.013,-3.469 -0.167,-1.959 1.045,-3.8 3.536,-3.929 2.327,-0.121 3.848,0.72 3.898,3.524 m 334.021,280.349 c 0.045,2.875 -1.161,4.049 -3.629,3.986 -2.23,-0.057 -3.39,-1.19 -3.299,-3.397 0.084,-2.032 0.412,-4.258 2.995,-4.332 2.546,-0.073 3.733,1.708 3.933,3.743 m 14.146,-208.059 c -1.657,-0.799 -3.318,-1.928 -3,-4.285 0.297,-2.208 1.77,-3.595 4.074,-3.465 2.452,0.138 3.483,2.105 3.352,4.115 -0.141,2.166 -1.939,3.294 -4.426,3.635 M 37.046,-336.421 c -0.303,2.036 -1.345,3.614 -3.583,3.933 -2.541,0.364 -3.669,-1.556 -3.943,-3.501 -0.321,-2.27 1.402,-3.701 3.483,-4.026 2.404,-0.377 3.418,1.384 4.043,3.594 m 153.885,164.581 c -0.503,2.312 -2.432,3.234 -4.35,3.218 -2.222,-0.018 -3.557,-1.731 -3.352,-4.023 0.178,-1.979 1.451,-3.515 3.513,-3.411 2.402,0.12 3.722,1.824 4.189,4.216 m -183.91,21.087 c -0.652,1.667 -1.652,3.318 -4.019,3.262 -2.489,-0.059 -3.482,-1.971 -3.462,-3.969 0.022,-2.224 1.81,-3.627 3.935,-3.597 2.261,0.031 3.347,1.731 3.546,4.304 M 74.84,-366.205 c -1.076,1.516 -1.991,3.694 -4.484,3.599 -1.917,-0.072 -3.402,-1.187 -3.214,-3.55 0.181,-2.282 1.349,-3.764 3.581,-4.045 2.547,-0.321 3.307,1.655 4.117,3.996 m 52.123,1.429 c 0.059,2.762 -1.773,3.863 -3.74,3.959 -1.991,0.097 -3.943,-0.926 -4.023,-3.417 -0.066,-2.066 1.159,-3.672 3.119,-3.791 2.21,-0.134 4.124,0.925 4.644,3.249 m -109.495,74.587 c 2.445,0.476 3.286,2.429 3.294,4.378 0.009,1.999 -1.571,3.349 -3.637,3.302 -2.535,-0.057 -4.031,-1.634 -3.89,-4.159 0.138,-2.474 2.353,-2.893 4.233,-3.521 M -6.1,-220.185 c -0.188,2.594 -2.2,3.348 -4.118,3.535 -2.092,0.204 -3.416,-1.396 -3.529,-3.384 -0.143,-2.53 1.359,-4.09 3.902,-4.135 2.548,-0.045 3.015,2.156 3.745,3.984 m 98.731,88.81 c -2.718,0.11 -4.09,-1.695 -4.055,-3.913 0.032,-2.015 1.818,-3.681 3.884,-3.756 2.263,-0.081 3.41,1.668 3.552,3.889 0.151,2.36 -0.869,3.757 -3.381,3.78 m 339.557,87.171 c 1.427,1.009 4.086,1.122 3.548,3.902 -0.376,1.945 -1.226,4.02 -3.834,3.833 -2.307,-0.165 -3.735,-1.62 -3.726,-3.901 0.009,-2.305 1.502,-3.544 4.012,-3.834 M -91.766,-173.285 c 1.515,0.11 3.404,0.971 3.324,3.061 -0.083,2.17 -1.399,4.47 -3.846,4.555 -2.587,0.089 -3.61,-1.989 -3.569,-4.454 0.039,-2.331 1.422,-3.204 4.091,-3.162 M 357.403,9.684 c 1.717,0.437 3.425,1.42 3.525,3.773 0.099,2.313 -1.277,3.79 -3.547,4.044 -2.559,0.285 -3.734,-1.642 -3.853,-3.659 -0.121,-2.045 0.975,-3.846 3.875,-4.158 M 195.056,-6.741 c -0.664,1.718 -1.715,3.426 -4.109,3.265 -2.25,-0.152 -3.847,-1.49 -3.578,-3.878 0.246,-2.187 1.836,-3.717 4.05,-3.707 2.339,0.01 3.404,1.73 3.637,4.32 m 67.846,-3.229 c -0.329,1.993 -1.503,3.389 -3.55,3.478 -2.544,0.111 -4.114,-1.386 -4.147,-3.93 -0.027,-2.062 1.321,-3.625 3.344,-3.652 2.438,-0.032 3.845,1.656 4.353,4.104 m -89.33,-61.507 c -2.412,-0.499 -3.673,-1.646 -3.547,-4.132 0.122,-2.4 1.095,-3.669 3.614,-3.691 2.53,-0.022 3.845,1.662 3.908,3.647 0.075,2.383 -1.956,3.564 -3.975,4.176 M 48.669,-91.465 c -2.255,-0.574 -3.509,-1.881 -3.572,-4.19 -0.067,-2.46 1.134,-3.719 3.602,-3.648 2.268,0.066 4.092,1.241 4.073,3.467 -0.021,2.333 -2.016,3.587 -4.103,4.371 m 162.123,-120.968 c -2.493,-0.51 -3.539,-2.43 -3.414,-4.639 0.11,-1.954 1.718,-3.257 3.765,-3.138 2.492,0.145 3.988,1.735 3.765,4.229 -0.199,2.213 -1.778,3.396 -4.116,3.548 M 302,-118.495 c -0.111,2.459 -1.826,3.662 -3.842,3.699 -1.993,0.037 -3.993,-1.016 -3.955,-3.5 0.032,-2.074 0.763,-3.956 3.38,-3.98 2.532,-0.024 3.908,1.358 4.417,3.781 m -168.015,-46.047 c -0.863,1.744 -1.15,4.232 -4.024,4.082 -2.26,-0.117 -3.686,-1.538 -3.754,-3.796 -0.069,-2.303 1.385,-3.738 3.606,-3.918 2.299,-0.186 3.575,1.273 4.172,3.632 m 210.06,131.479 c -0.046,1.513 -1.115,3.371 -3.348,3.421 -2.341,0.053 -4.094,-1.816 -4.292,-4.041 -0.203,-2.287 1.638,-3.446 3.876,-3.594 2.416,-0.159 3.756,0.956 3.764,4.214 m 26.105,-44.944 c 2.364,0.601 3.819,2.152 3.735,4.577 -0.091,2.642 -2.303,2.943 -4.347,3.033 -2.227,0.097 -3.34,-1.07 -3.417,-3.326 -0.095,-2.791 1.726,-3.69 4.029,-4.284 m -11.094,-87.167 c -0.447,1.851 -1.445,3.536 -3.769,3.676 -2.319,0.14 -3.871,-1.261 -4.06,-3.493 -0.213,-2.522 1.284,-4.148 3.829,-4.196 2.311,-0.043 3.511,1.518 4,4.013 m -219.077,55.319 c -0.432,1.7 -1.467,3.35 -4.06,3.481 -2.37,0.119 -3.786,-0.856 -3.791,-3.358 -0.004,-2.191 0.886,-4.179 3.201,-4.088 1.92,0.076 4.434,0.414 4.65,3.965 m 322.929,-69.344 c -0.247,2.251 -1.547,3.543 -3.777,3.767 -2.254,0.225 -3.901,-0.516 -4.022,-3.138 -0.117,-2.525 1.076,-4.201 3.509,-4.577 2.819,-0.437 3.466,1.888 4.29,3.948 m -220.941,56.852 c -1.076,1.53 -2.077,3.789 -4.501,3.704 -2.229,-0.079 -3.4,-1.896 -3.363,-4.182 0.037,-2.211 0.959,-4.221 3.362,-3.99 2.123,0.204 4.01,1.557 4.502,4.468 m -39.913,-167.978 c 0.049,2.286 -0.735,3.83 -3.321,3.935 -2.729,0.111 -4.087,-1.583 -4.184,-3.868 -0.109,-2.551 1.925,-3.749 4.236,-3.93 2.641,-0.207 3.325,1.599 3.269,3.863 m 329.537,199.068 c -0.639,2.675 -2.088,4.526 -4.461,4.333 -2.278,-0.184 -3.84,-2.093 -3.8,-4.475 0.045,-2.741 2.339,-3.681 4.505,-3.487 1.997,0.18 3.363,1.845 3.756,3.629 M 54.082,-405.27 c 2.525,0.286 3.94,2.262 3.436,4.08 -0.645,2.322 -0.818,6.424 -3.642,6.256 -2.466,-0.147 -3.142,-4.095 -3.545,-6.605 -0.347,-2.167 1.529,-3.475 3.751,-3.731 m 509.585,100.944 c 2.211,0.158 3.997,1.272 4.172,3.768 0.199,2.814 -1.954,4.371 -4.25,4.59 -2.626,0.251 -4.175,-1.923 -4.273,-4.37 -0.099,-2.487 1.679,-3.742 4.351,-3.988 m 29.446,68.06 c 0.023,-3.151 1.75,-4.682 4.321,-4.488 2.291,0.173 3.689,1.801 3.643,4.433 -0.053,2.997 -1.568,4.053 -4.36,3.949 -2.761,-0.103 -3.737,-1.633 -3.604,-3.894 m 38.734,35.454 c -0.578,2.745 -2.133,4.336 -4.764,4.285 -2.515,-0.048 -3.943,-1.707 -3.822,-4.171 0.116,-2.365 1.607,-4.17 3.991,-4.249 2.635,-0.088 3.876,1.963 4.595,4.135 m -107.17,-87.369 c -0.842,2.344 -1.743,4.638 -4.547,4.626 -2.493,-0.01 -3.908,-1.657 -3.965,-4.123 -0.063,-2.693 1.349,-4.543 4.111,-4.428 2.303,0.096 3.679,1.829 4.401,3.925 m 10.157,115.494 c -0.719,2.057 -2.021,3.985 -4.315,4.021 -2.614,0.041 -4.214,-1.889 -4.263,-4.481 -0.048,-2.481 1.521,-4.046 4.019,-3.978 2.623,0.071 4.106,1.739 4.559,4.438 m -563.59,-425.811 c -3.234,0.24 -4.855,-1.768 -6.201,-4.156 -1.067,-1.892 -1.207,-3.697 0.409,-5.437 2.352,-2.53 4.156,-0.087 6.151,0.606 0.464,0.16 0.908,0.394 1.337,0.636 1.568,0.887 4.411,0.644 3.809,3.569 -0.593,2.885 -2.698,4.393 -5.505,4.782 m 337.91,164.187 c 0.246,-2.427 1.948,-4.621 5.408,-4.91 3.312,-0.277 7.573,3.25 7.274,6.06 -0.394,3.701 -2.675,6.128 -6.363,6.514 -3.634,0.38 -6.369,-2.776 -6.319,-7.664 m -526.067,44.713 c -0.445,-4.61 3.058,-5.609 6.231,-6.337 2.539,-0.582 6.693,3.742 6.239,6.47 -0.587,3.528 -2.625,5.934 -6.64,6.118 -4.537,0.207 -5.575,-2.624 -5.83,-6.251 m 43.98,-147.357 c -0.068,-4.005 2.484,-5.704 5.865,-6.148 3.178,-0.418 7.368,3.639 6.751,6.573 -0.723,3.44 -2.673,6.23 -6.726,6.076 -4.024,-0.153 -5.816,-2.623 -5.89,-6.501 m -97.275,23.62 c 3.838,0.296 6.237,2.205 6.151,6.234 -0.086,4.016 -2.974,5.86 -6.426,6.41 -2.77,0.44 -6.566,-3.664 -6.235,-6.628 0.41,-3.657 2.241,-6.232 6.51,-6.016 m -62.137,33.028 c 4.302,0.113 6.294,2.701 7.023,6.143 0.634,2.997 -3.432,6.946 -6.716,6.583 -3.44,-0.379 -5.858,-2.106 -5.878,-6.084 -0.019,-4.015 1.981,-6.089 5.571,-6.642 m 635.44,279.637 c 0.061,-4.03 3.055,-6.849 6.604,-6.525 3.725,0.341 5.5,3.069 6.008,6.318 0.475,3.029 -3.647,6.612 -6.889,6.433 -4.315,-0.237 -5.223,-3.374 -5.723,-6.226 m -407.019,154.006 c -0.03,-4.666 2.719,-7.693 6.097,-7.418 3.855,0.313 5.99,2.779 6.385,6.467 0.349,3.266 -2.878,6.266 -6.377,6.204 -4.07,-0.073 -5.877,-2.451 -6.105,-5.253 m -33.006,-474.694 c 0.235,3.545 -2.341,5.311 -5.996,5.829 -2.879,0.409 -6.575,-3.118 -6.726,-6.111 -0.146,-2.89 3.392,-6.762 6.309,-6.54 3.667,0.279 6.327,1.924 6.413,6.822 m -34.945,-88.9 c 3.913,-0.027 6.978,2.769 6.769,6.422 -0.218,3.792 -2.969,5.579 -6.194,6.169 -3.371,0.617 -6.458,-2.515 -6.562,-6.011 -0.108,-3.639 2.547,-6.556 5.987,-6.58 m -133.14,364.084 c 0.057,4.006 -2.888,6.787 -6.454,6.714 -2.842,-0.058 -6.299,-3.756 -6.29,-6.729 0.008,-2.782 3.739,-6.078 6.846,-6.03 4.384,0.069 5.353,3.181 5.898,6.045 M -77.891,-465.88 c -0.767,3.32 -2.58,5.97 -6.348,6.266 -3.143,0.246 -6.861,-3.759 -6.464,-6.882 0.464,-3.662 2.397,-6.042 6.557,-5.822 3.994,0.211 5.867,2.396 6.255,6.438 m -13.127,78.402 c 0.094,4.116 -3.062,7.622 -6.014,7.681 -3.387,0.068 -6.526,-3.116 -6.639,-6.735 -0.091,-2.909 3.546,-6.92 6.34,-6.448 3.467,0.584 5.998,2.587 6.313,5.502 m -57.125,212.245 c 4.014,-0.123 7.366,2.737 6.97,5.995 -0.421,3.466 -2.155,6.341 -6.084,6.708 -3.646,0.34 -6.425,-2.569 -6.592,-6.477 -0.185,-4.35 2.79,-5.507 5.706,-6.226 M -8.76,-259.389 c -2.946,-0.289 -5.422,-2.179 -5.655,-6.067 -0.214,-3.571 3.42,-6.857 7.255,-6.637 4.001,0.23 5.001,3.675 5.658,6.612 0.686,3.066 -2.883,6.092 -7.258,6.092 M 45.992,-375.36 c 0.069,3.395 -3.525,7.053 -7.123,6.806 -3.761,-0.258 -5.487,-3.189 -5.579,-6.391 -0.095,-3.322 1.555,-6.113 5.56,-6.314 3.974,-0.2 7.071,2.364 7.142,5.899 m 55.066,-120.072 c -3.001,-0.461 -5.099,-2.533 -4.974,-6.537 0.115,-3.673 1.896,-6.005 5.68,-6.185 3.372,-0.16 7.12,3.346 7.115,6.338 -0.006,3.202 -3.57,6.482 -7.821,6.384 m 34.897,81.101 c -0.017,4.199 -3.212,7.806 -6.613,7.437 -3.339,-0.363 -5.925,-2.27 -6.118,-6.036 -0.177,-3.437 3.376,-7.619 6.2,-7.138 3.492,0.595 6.075,2.515 6.531,5.737 m 102.481,122.886 c -5.35,0.048 -8.453,-2.656 -8.181,-6.307 0.28,-3.745 2.666,-6.208 6.337,-6.367 3.856,-0.167 6.295,2.289 6.291,6.166 -0.003,3.629 -1.676,6.373 -4.447,6.508 M 16.009,-566.272 c 3.169,-0.025 6.643,3.252 6.595,6.22 -0.057,3.434 -3.396,6.716 -6.946,6.519 -4.034,-0.223 -5.734,-3.148 -6.294,-6.602 -0.445,-2.737 3.498,-6.112 6.645,-6.137 m 104.999,413.608 c -0.187,2.678 -1.937,5.089 -5.974,5.222 -3.89,0.128 -6.995,-2.594 -6.78,-6.235 0.22,-3.739 2.584,-6.043 6.224,-6.465 3.698,-0.429 6.562,2.578 6.53,7.478 M -8.975,-473.993 c -0.135,4.793 -2.236,7.01 -6.109,7.177 -3.417,0.148 -6.785,-3.427 -6.676,-6.681 0.107,-3.207 3.893,-7.109 6.897,-6.533 3.529,0.676 5.63,3.109 5.888,6.037 m 766.991,407.566 c 0.076,4.002 -2.395,6.829 -6.126,7.009 -3.809,0.183 -6.696,-2.448 -6.792,-6.189 -0.096,-3.753 3.127,-7.692 6.222,-7.602 3.201,0.093 6.635,3.571 6.696,6.782 M 425.749,-182.35 c -4.56,0.068 -7.377,-2.298 -7.469,-6.275 -0.071,-3.109 3.545,-6.651 6.81,-6.671 4.135,-0.024 7.067,2.482 6.879,6.142 -0.2,3.888 -1.745,6.753 -6.22,6.804 m 192.22,173.869 c -0.158,3.83 -3.88,7.27 -7.628,7.051 -2.997,-0.176 -6.233,-4.001 -6.207,-7.34 0.023,-3.025 3.875,-6.543 7.066,-6.454 3.238,0.091 6.893,3.732 6.769,6.743 m -8.931,-131.42 c 0.607,3.989 -2.171,5.693 -5.792,6.119 -3.962,0.466 -7.087,-2.563 -7.143,-6.364 -0.07,-4.636 2.407,-7.269 6.946,-7.101 4.349,0.16 6.123,2.758 5.989,7.346 m -345.021,96.018 c 0.005,4.056 -2.73,6.576 -7.032,6.48 -3.251,-0.073 -7.029,-3.681 -6.635,-6.726 0.484,-3.733 2.369,-6.622 6.481,-7.039 3.534,-0.359 7.181,3.492 7.186,7.285 m 601.232,-83.399 c 3.965,0.064 6.716,2.693 6.735,6.435 0.02,3.66 -3.499,7.434 -6.78,7.272 -3.828,-0.188 -7.137,-3.429 -7.064,-6.918 0.077,-3.629 3.448,-6.849 7.109,-6.789 M 384.678,14.49 c 0.127,3.468 -2.947,6.932 -6.307,7.11 -3.909,0.206 -7.889,-2.838 -7.928,-6.064 -0.04,-3.339 4.012,-7.619 7.334,-7.745 2.982,-0.112 6.787,3.581 6.901,6.699 m -734.615,-636.826 c 0,214.748 0.014,429.497 -0.11,644.245 -0.003,4.041 0.786,4.869 4.852,4.866 204.419,-0.127 408.839,-0.111 613.258,-0.111 0.127,-1.879 1.15,-3.461 2.9,-3.516 2.056,-0.064 3.837,1.056 4.1,3.516 h 501 c 0.191,-1.917 -1.781,-2.205 -2.563,-3.396 -1.981,-3.024 -1.892,-6.026 0.432,-8.705 2.613,-3.012 6.199,-2.579 9.068,-0.979 2.755,1.536 3.364,4.386 2.378,7.818 -0.65,2.264 -3.307,2.871 -3.315,5.262 75,0 150,-0.03 225,0.096 3.424,0.006 4.096,-0.673 4.094,-4.096 -0.104,-216.5 -0.105,-433 0,-649.5 0,-3.75 -0.844,-4.594 -4.593,-4.593 -448.5,0.098 -897,0.093 -1345.5,0.093 -0.313,1.524 0.855,2.384 1.559,3.444 2.075,3.126 1.623,6.179 -1.2,8.27 -2.869,2.124 -6.125,2.116 -8.734,-0.901 -0.735,-0.85 -1.17,-2.041 -2.625,-1.813" /></g><g
                 id="g34"
                 transform="translate(243,749)"><path
                   id="path32"
                   style="fill:#d9d9d9;fill-opacity:1;fill-rule:nonzero;stroke:none"
                   d="M 0,0 C -0.262,-2.46 -2.044,-3.58 -4.1,-3.515 -5.85,-3.461 -6.872,-1.878 -7,0 Z" /></g><g
                 id="g38"
                 transform="translate(352.6154,736.8259)"><path
                   id="path36"
                   style="fill:#d9d9d9;fill-opacity:1;fill-rule:nonzero;stroke:none"
                   d="m 0,0 c -0.114,-3.118 -3.919,-6.811 -6.901,-6.698 -3.322,0.125 -7.375,4.405 -7.334,7.745 0.039,3.225 4.019,6.269 7.928,6.063 C -2.947,6.933 0.127,3.468 0,0" /></g><g
                 id="g42"
                 transform="translate(231.9539,678.4537)"><path
                   id="path40"
                   style="fill:#d9d9d9;fill-opacity:1;fill-rule:nonzero;stroke:none"
                   d="m 0,0 c -0.005,-3.793 -3.652,-7.644 -7.186,-7.285 -4.111,0.417 -5.996,3.305 -6.48,7.039 -0.395,3.044 3.384,6.652 6.634,6.725 C -2.73,6.576 0.005,4.056 0,0" /></g><g
                 id="g46"
                 transform="translate(576.9751,582.4355)"><path
                   id="path44"
                   style="fill:#d9d9d9;fill-opacity:1;fill-rule:nonzero;stroke:none"
                   d="m 0,0 c 0.134,-4.588 -1.64,-7.186 -5.989,-7.346 -4.539,-0.168 -7.016,2.465 -6.946,7.101 0.056,3.801 3.181,6.83 7.143,6.364 C -2.171,5.693 0.607,3.989 0,0" /></g><g
                 id="g50"
                 transform="translate(585.906,713.8556)"><path
                   id="path48"
                   style="fill:#d9d9d9;fill-opacity:1;fill-rule:nonzero;stroke:none"
                   d="m 0,0 c 0.124,-3.011 -3.531,-6.652 -6.768,-6.743 -3.192,-0.089 -7.044,3.428 -7.067,6.454 -0.026,3.338 3.21,7.164 6.207,7.339 C -3.88,7.27 -0.158,3.829 0,0" /></g><g
                 id="g54"
                 transform="translate(393.686,539.9863)"><path
                   id="path52"
                   style="fill:#d9d9d9;fill-opacity:1;fill-rule:nonzero;stroke:none"
                   d="m 0,0 c 4.475,-0.051 6.021,-2.916 6.22,-6.804 0.188,-3.66 -2.743,-6.166 -6.879,-6.142 -3.265,0.02 -6.881,3.562 -6.809,6.671 C -7.377,-2.298 -4.56,0.068 0,0" /></g><g
                 id="g58"
                 transform="translate(88.9453,569.6724)"><path
                   id="path56"
                   style="fill:#cccccc;fill-opacity:1;fill-rule:nonzero;stroke:none"
                   d="m 0,0 c 0.032,-4.9 -2.832,-7.907 -6.531,-7.478 -3.639,0.422 -6.003,2.726 -6.223,6.465 -0.215,3.641 2.889,6.363 6.78,6.235 C -1.937,5.089 -0.187,2.678 0,0" /></g><g
                 id="g62"
                 transform="translate(206.373,430.8911)"><path
                   id="path60"
                   style="fill:#cccccc;fill-opacity:1;fill-rule:nonzero;stroke:none"
                   d="m 0,0 c 2.771,-0.134 4.445,-2.879 4.448,-6.508 0.003,-3.877 -2.436,-6.332 -6.292,-6.166 -3.671,0.159 -6.057,2.622 -6.337,6.367 C -8.453,-2.656 -5.35,0.049 0,0" /></g><g
                 id="g66"
                 transform="translate(103.8925,308.0058)"><path
                   id="path64"
                   style="fill:#cccccc;fill-opacity:1;fill-rule:nonzero;stroke:none"
                   d="m 0,0 c -0.456,-3.222 -3.039,-5.143 -6.531,-5.737 -2.824,-0.481 -6.377,3.701 -6.2,7.138 0.193,3.765 2.779,5.672 6.117,6.035 C -3.213,7.806 -0.018,4.199 0,0" /></g><g
                 id="g70"
                 transform="translate(68.9952,226.9048)"><path
                   id="path68"
                   style="fill:#cccccc;fill-opacity:1;fill-rule:nonzero;stroke:none"
                   d="m 0,0 c 4.251,0.097 7.815,-3.182 7.821,-6.384 0.005,-2.992 -3.743,-6.498 -7.115,-6.338 -3.784,0.18 -5.565,2.512 -5.68,6.184 C -5.099,-2.534 -3.001,-0.461 0,0" /></g><g
                 id="g74"
                 transform="translate(13.9295,346.9767)"><path
                   id="path72"
                   style="fill:#cccccc;fill-opacity:1;fill-rule:nonzero;stroke:none"
                   d="m 0,0 c -0.071,-3.535 -3.168,-6.099 -7.142,-5.899 -4.005,0.201 -5.655,2.992 -5.56,6.314 0.091,3.202 1.818,6.132 5.579,6.39 C -3.525,7.052 0.069,3.395 0,0" /></g><g
                 id="g78"
                 transform="translate(271.0319,521.6667)"><path
                   id="path76"
                   style="fill:#cccccc;fill-opacity:1;fill-rule:nonzero;stroke:none"
                   d="M 0,0 C 0.5,2.851 1.408,5.989 5.723,6.226 8.965,6.404 13.087,2.822 12.613,-0.207 12.104,-3.457 10.33,-6.185 6.604,-6.525 3.055,-6.849 0.061,-4.031 0,0" /></g><g
                 id="g82"
                 transform="translate(277.0908,288.0255)"><path
                   id="path80"
                   style="fill:#cccccc;fill-opacity:1;fill-rule:nonzero;stroke:none"
                   d="M 0,0 C -0.049,4.888 2.685,8.044 6.32,7.664 10.007,7.278 12.288,4.851 12.682,1.15 12.981,-1.661 8.721,-5.188 5.409,-4.91 1.949,-4.621 0.246,-2.427 0,0" /></g><g
                 id="g86"
                 transform="translate(502.7715,549.6498)"><path
                   id="path84"
                   style="fill:#cccccc;fill-opacity:1;fill-rule:nonzero;stroke:none"
                   d="m 0,0 c -0.453,-2.7 -1.937,-4.367 -4.56,-4.439 -2.498,-0.068 -4.066,1.497 -4.019,3.978 0.05,2.593 1.649,4.523 4.264,4.482 C -2.022,3.985 -0.72,2.057 0,0" /></g><g
                 id="g90"
                 transform="translate(492.6141,434.1555)"><path
                   id="path88"
                   style="fill:#cccccc;fill-opacity:1;fill-rule:nonzero;stroke:none"
                   d="M 0,0 C -0.722,-2.096 -2.098,-3.83 -4.401,-3.925 -7.163,-4.04 -8.575,-2.19 -8.512,0.503 -8.455,2.969 -7.04,4.616 -4.547,4.626 -1.743,4.638 -0.842,2.344 0,0" /></g><g
                 id="g94"
                 transform="translate(599.7843,521.5239)"><path
                   id="path92"
                   style="fill:#cccccc;fill-opacity:1;fill-rule:nonzero;stroke:none"
                   d="m 0,0 c -0.719,-2.172 -1.96,-4.223 -4.595,-4.135 -2.384,0.08 -3.875,1.884 -3.991,4.25 -0.121,2.463 1.307,4.122 3.822,4.171 C -2.133,4.336 -0.578,2.746 0,0" /></g><g
                 id="g98"
                 transform="translate(561.0506,486.0706)"><path
                   id="path96"
                   style="fill:#cccccc;fill-opacity:1;fill-rule:nonzero;stroke:none"
                   d="M 0,0 C -0.133,2.261 0.843,3.79 3.603,3.893 6.395,3.998 7.911,2.941 7.963,-0.055 8.01,-2.688 6.612,-4.316 4.321,-4.488 1.75,-4.682 0.022,-3.151 0,0" /></g><g
                 id="g102"
                 transform="translate(531.6039,418.0108)"><path
                   id="path100"
                   style="fill:#cccccc;fill-opacity:1;fill-rule:nonzero;stroke:none"
                   d="m 0,0 c -2.671,0.245 -4.45,1.501 -4.351,3.987 0.098,2.447 1.647,4.621 4.273,4.371 C 2.219,8.138 4.371,6.582 4.173,3.767 3.997,1.271 2.211,0.158 0,0" /></g><g
                 id="g106"
                 transform="translate(22.0193,317.0666)"><path
                   id="path104"
                   style="fill:#d9d9d9;fill-opacity:1;fill-rule:nonzero;stroke:none"
                   d="m 0,0 c -2.223,0.256 -4.099,1.564 -3.751,3.731 0.403,2.51 1.079,6.458 3.545,6.605 C 2.618,10.504 2.791,6.402 3.436,4.079 3.94,2.262 2.525,0.286 0,0" /></g><g
                 id="g110"
                 transform="translate(499.5278,631.0792)"><path
                   id="path108"
                   style="fill:#cccccc;fill-opacity:1;fill-rule:nonzero;stroke:none"
                   d="m 0,0 c -0.392,-1.784 -1.759,-3.449 -3.755,-3.629 -2.167,-0.194 -4.46,0.746 -4.506,3.487 -0.039,2.382 1.522,4.291 3.8,4.475 C -2.088,4.526 -0.639,2.675 0,0" /></g><g
                 id="g114"
                 transform="translate(169.9905,432.0115)"><path
                   id="path112"
                   style="fill:#d9d9d9;fill-opacity:1;fill-rule:nonzero;stroke:none"
                   d="m 0,0 c 0.056,-2.264 -0.627,-4.07 -3.269,-3.863 -2.31,0.181 -4.344,1.378 -4.235,3.93 0.097,2.284 1.455,3.979 4.184,3.868 C -0.734,3.83 0.049,2.286 0,0" /></g><g
                 id="g118"
                 transform="translate(209.9043,599.9892)"><path
                   id="path116"
                   style="fill:#d9d9d9;fill-opacity:1;fill-rule:nonzero;stroke:none"
                   d="m 0,0 c -0.492,-2.91 -2.379,-4.264 -4.502,-4.468 -2.403,-0.231 -3.325,1.779 -3.362,3.99 -0.037,2.286 1.134,4.103 3.363,4.182 C -2.077,3.789 -1.076,1.53 0,0" /></g><g
                 id="g122"
                 transform="translate(430.845,543.1376)"><path
                   id="path120"
                   style="fill:#d9d9d9;fill-opacity:1;fill-rule:nonzero;stroke:none"
                   d="m 0,0 c -0.824,-2.06 -1.471,-4.385 -4.29,-3.949 -2.433,0.377 -3.626,2.053 -3.509,4.577 0.121,2.623 1.768,3.364 4.022,3.138 C -1.547,3.543 -0.246,2.25 0,0" /></g><g
                 id="g126"
                 transform="translate(107.916,612.4817)"><path
                   id="path124"
                   style="fill:#d9d9d9;fill-opacity:1;fill-rule:nonzero;stroke:none"
                   d="M 0,0 C -0.216,-3.551 -2.73,-3.89 -4.65,-3.965 -6.965,-4.056 -7.855,-2.068 -7.851,0.123 -7.846,2.625 -6.43,3.6 -4.06,3.481 -1.467,3.35 -0.432,1.7 0,0" /></g><g
                 id="g130"
                 transform="translate(326.9927,557.1625)"><path
                   id="path128"
                   style="fill:#d9d9d9;fill-opacity:1;fill-rule:nonzero;stroke:none"
                   d="m 0,0 c -0.489,-2.495 -1.688,-4.057 -4,-4.013 -2.545,0.048 -4.042,1.674 -3.828,4.196 0.189,2.232 1.74,3.632 4.059,3.493 C -1.445,3.536 -0.446,1.851 0,0" /></g><g
                 id="g134"
                 transform="translate(338.0869,644.3297)"><path
                   id="path132"
                   style="fill:#d9d9d9;fill-opacity:1;fill-rule:nonzero;stroke:none"
                   d="m 0,0 c -2.302,0.594 -4.124,1.493 -4.029,4.284 0.077,2.256 1.19,3.423 3.417,3.325 C 1.432,7.52 3.644,7.219 3.735,4.577 3.819,2.152 2.364,0.601 0,0" /></g><g
                 id="g138"
                 transform="translate(311.9819,689.2734)"><path
                   id="path136"
                   style="fill:#d9d9d9;fill-opacity:1;fill-rule:nonzero;stroke:none"
                   d="m 0,0 c -0.008,-3.258 -1.347,-4.373 -3.764,-4.214 -2.238,0.148 -4.079,1.307 -3.876,3.594 0.198,2.225 1.951,4.094 4.293,4.041 C -1.115,3.371 -0.046,1.513 0,0" /></g><g
                 id="g142"
                 transform="translate(101.9222,557.7944)"><path
                   id="path140"
                   style="fill:#d9d9d9;fill-opacity:1;fill-rule:nonzero;stroke:none"
                   d="m 0,0 c -0.597,-2.359 -1.873,-3.818 -4.172,-3.632 -2.221,0.18 -3.675,1.615 -3.606,3.918 0.068,2.258 1.494,3.678 3.754,3.796 C -1.15,4.232 -0.863,1.744 0,0" /></g><g
                 id="g146"
                 transform="translate(269.9371,603.8416)"><path
                   id="path144"
                   style="fill:#d9d9d9;fill-opacity:1;fill-rule:nonzero;stroke:none"
                   d="m 0,0 c -0.509,-2.423 -1.885,-3.805 -4.417,-3.782 -2.616,0.025 -3.348,1.907 -3.38,3.981 -0.038,2.484 1.962,3.537 3.955,3.5 C -1.826,3.662 -0.111,2.459 0,0" /></g><g
                 id="g150"
                 transform="translate(178.7296,509.9035)"><path
                   id="path148"
                   style="fill:#d9d9d9;fill-opacity:1;fill-rule:nonzero;stroke:none"
                   d="M 0,0 C 2.338,-0.152 3.917,-1.335 4.115,-3.549 4.339,-6.042 2.843,-7.632 0.351,-7.777 -1.697,-7.896 -3.304,-6.593 -3.415,-4.639 -3.539,-2.43 -2.493,-0.51 0,0" /></g><g
                 id="g154"
                 transform="translate(16.6067,630.8709)"><path
                   id="path152"
                   style="fill:#d9d9d9;fill-opacity:1;fill-rule:nonzero;stroke:none"
                   d="M 0,0 C 2.086,-0.783 4.081,-2.038 4.102,-4.371 4.122,-6.596 2.298,-7.772 0.03,-7.837 -2.438,-7.909 -3.64,-6.649 -3.573,-4.189 -3.51,-1.881 -2.255,-0.573 0,0" /></g><g
                 id="g158"
                 transform="translate(141.5088,650.8589)"><path
                   id="path156"
                   style="fill:#d9d9d9;fill-opacity:1;fill-rule:nonzero;stroke:none"
                   d="M 0,0 C 2.02,-0.612 4.05,-1.792 3.975,-4.175 3.913,-6.161 2.597,-7.844 0.067,-7.823 -2.451,-7.801 -3.424,-6.531 -3.546,-4.131 -3.673,-1.646 -2.411,-0.499 0,0" /></g><g
                 id="g162"
                 transform="translate(230.8396,712.3665)"><path
                   id="path160"
                   style="fill:#d9d9d9;fill-opacity:1;fill-rule:nonzero;stroke:none"
                   d="m 0,0 c -0.509,-2.448 -1.916,-4.136 -4.353,-4.104 -2.023,0.027 -3.371,1.59 -3.344,3.652 0.032,2.544 1.603,4.041 4.147,3.93 C -1.503,3.389 -0.33,1.992 0,0" /></g><g
                 id="g166"
                 transform="translate(162.9932,715.5954)"><path
                   id="path164"
                   style="fill:#d9d9d9;fill-opacity:1;fill-rule:nonzero;stroke:none"
                   d="m 0,0 c -0.233,-2.59 -1.298,-4.31 -3.637,-4.32 -2.214,-0.01 -3.804,1.52 -4.05,3.707 -0.269,2.388 1.328,3.726 3.578,3.878 C -1.715,3.426 -0.664,1.718 0,0" /></g><g
                 id="g170"
                 transform="translate(325.3403,732.0208)"><path
                   id="path168"
                   style="fill:#d9d9d9;fill-opacity:1;fill-rule:nonzero;stroke:none"
                   d="m 0,0 c -2.9,0.312 -3.996,2.113 -3.875,4.158 0.119,2.016 1.294,3.944 3.853,3.658 C 2.248,7.563 3.624,6.086 3.525,3.772 3.425,1.419 1.717,0.437 0,0" /></g><g
                 id="g174"
                 transform="translate(400.125,678.132)"><path
                   id="path172"
                   style="fill:#d9d9d9;fill-opacity:1;fill-rule:nonzero;stroke:none"
                   d="M 0,0 C -2.51,0.291 -4.003,1.53 -4.012,3.834 -4.021,6.116 -2.593,7.57 -0.286,7.736 2.322,7.922 3.172,5.847 3.548,3.902 4.086,1.123 1.427,1.009 0,0" /></g><g
                 id="g178"
                 transform="translate(60.5696,590.9617)"><path
                   id="path176"
                   style="fill:#d9d9d9;fill-opacity:1;fill-rule:nonzero;stroke:none"
                   d="M 0,0 C 2.51,-0.023 3.531,-1.42 3.38,-3.781 3.238,-6.001 2.09,-7.75 -0.172,-7.669 -2.239,-7.594 -4.025,-5.928 -4.056,-3.913 -4.091,-1.695 -2.719,0.11 0,0" /></g><g
                 id="g182"
                 transform="translate(94.8998,357.5601)"><path
                   id="path180"
                   style="fill:#d9d9d9;fill-opacity:1;fill-rule:nonzero;stroke:none"
                   d="m 0,0 c -0.519,-2.324 -2.434,-3.382 -4.644,-3.249 -1.959,0.119 -3.185,1.725 -3.118,3.792 0.079,2.49 2.031,3.513 4.022,3.416 C -1.773,3.863 0.059,2.762 0,0" /></g><g
                 id="g186"
                 transform="translate(42.7768,356.131)"><path
                   id="path184"
                   style="fill:#d9d9d9;fill-opacity:1;fill-rule:nonzero;stroke:none"
                   d="m 0,0 c -0.81,-2.34 -1.57,-4.316 -4.117,-3.996 -2.232,0.281 -3.4,1.763 -3.581,4.045 C -7.885,2.413 -6.401,3.527 -4.484,3.6 -1.991,3.694 -1.075,1.516 0,0" /></g><g
                 id="g190"
                 transform="translate(158.868,550.4959)"><path
                   id="path188"
                   style="fill:#d9d9d9;fill-opacity:1;fill-rule:nonzero;stroke:none"
                   d="M 0,0 C -0.466,-2.391 -1.787,-4.096 -4.189,-4.216 -6.251,-4.319 -7.524,-2.784 -7.701,-0.804 -7.907,1.487 -6.572,3.2 -4.35,3.219 -2.432,3.235 -0.503,2.313 0,0" /></g><g
                 id="g194"
                 transform="translate(4.9832,385.9157)"><path
                   id="path192"
                   style="fill:#d9d9d9;fill-opacity:1;fill-rule:nonzero;stroke:none"
                   d="m 0,0 c -0.625,-2.21 -1.639,-3.971 -4.043,-3.595 -2.081,0.326 -3.804,1.757 -3.483,4.027 0.274,1.944 1.402,3.864 3.943,3.501 C -1.345,3.613 -0.303,2.036 0,0" /></g><g
                 id="g198"
                 transform="translate(286.1187,464.894)"><path
                   id="path196"
                   style="fill:#d9d9d9;fill-opacity:1;fill-rule:nonzero;stroke:none"
                   d="M 0,0 C 2.487,-0.34 4.285,-1.468 4.426,-3.634 4.556,-5.644 3.525,-7.612 1.073,-7.75 -1.231,-7.879 -2.704,-6.492 -3.001,-4.285 -3.318,-1.928 -1.657,-0.799 0,0" /></g><g
                 id="g202"
                 transform="translate(271.9719,672.9535)"><path
                   id="path200"
                   style="fill:#d9d9d9;fill-opacity:1;fill-rule:nonzero;stroke:none"
                   d="m 0,0 c -0.2,-2.036 -1.386,-3.817 -3.932,-3.743 -2.584,0.074 -2.911,2.3 -2.995,4.332 -0.091,2.207 1.068,3.34 3.299,3.397 C -1.16,4.049 0.046,2.875 0,0" /></g><g
                 id="g206"
                 transform="translate(196.2483,659.6601)"><path
                   id="path204"
                   style="fill:#d9d9d9;fill-opacity:1;fill-rule:nonzero;stroke:none"
                   d="M 0,0 C 1.929,-0.723 3.944,-1.467 3.601,-4.011 3.305,-6.203 1.877,-7.685 -0.422,-7.532 -2.614,-7.385 -4.254,-6.052 -3.976,-3.685 -3.726,-1.556 -2.261,-0.206 0,0" /></g><g
                 id="g210"
                 transform="translate(62.9313,570.5256)"><path
                   id="path208"
                   style="fill:#d9d9d9;fill-opacity:1;fill-rule:nonzero;stroke:none"
                   d="m 0,0 c 0.088,-2.798 -0.591,-4.276 -2.974,-4.429 -2.394,-0.153 -3.86,0.73 -3.909,3.321 -0.044,2.305 1.026,4.097 3.261,4.292 C -1.226,3.392 -0.336,1.416 0,0" /></g><g
                 id="g214"
                 transform="translate(436.9692,461.7896)"><path
                   id="path212"
                   style="fill:#d9d9d9;fill-opacity:1;fill-rule:nonzero;stroke:none"
                   d="m 0,0 c -0.202,-1.574 -1.065,-3.41 -3.158,-3.3 -2.286,0.12 -3.96,1.511 -3.794,4.246 0.137,2.251 1.333,3.238 3.507,3.226 C -0.928,4.159 0.102,2.794 0,0" /></g><g
                 id="g218"
                 transform="translate(74.633,635.7657)"><path
                   id="path216"
                   style="fill:#d9d9d9;fill-opacity:1;fill-rule:nonzero;stroke:none"
                   d="m 0,0 c -0.701,-2.438 -1.882,-4.001 -4.587,-3.731 -2.3,0.229 -3.092,1.581 -3.017,3.695 0.091,2.594 1.669,3.42 3.973,3.219 C -1.612,3.006 -0.304,1.945 0,0" /></g><g
                 id="g222"
                 transform="translate(128.0209,438.3059)"><path
                   id="path220"
                   style="fill:#d9d9d9;fill-opacity:1;fill-rule:nonzero;stroke:none"
                   d="m 0,0 c -1.789,0.824 -3.717,1.87 -3.519,4.1 0.154,1.743 1.184,3.593 3.497,3.451 C 2.496,7.398 3.941,5.892 3.848,3.376 3.765,1.15 1.862,0.596 0,0" /></g><g
                 id="g226"
                 transform="translate(26.9898,509.7287)"><path
                   id="path224"
                   style="fill:#d9d9d9;fill-opacity:1;fill-rule:nonzero;stroke:none"
                   d="m 0,0 c -0.043,-2.488 -1.125,-3.673 -3.382,-3.67 -2.635,0.002 -3.445,1.821 -3.477,3.947 -0.031,2.036 1.126,3.752 3.295,3.491 C -1.528,3.522 0.178,2.276 0,0" /></g><g
                 id="g230"
                 transform="translate(68.7611,315.0403)"><path
                   id="path228"
                   style="fill:#d9d9d9;fill-opacity:1;fill-rule:nonzero;stroke:none"
                   d="M 0,0 C -2.11,-0.032 -3.72,0.702 -3.604,3.073 -3.5,5.201 -2.699,7.034 -0.042,6.918 1.982,6.83 3.802,5.933 3.754,3.818 3.707,1.781 2.543,0.002 0,0" /></g><g
                 id="g234"
                 transform="translate(39.9301,453.6592)"><path
                   id="path232"
                   style="fill:#d9d9d9;fill-opacity:1;fill-rule:nonzero;stroke:none"
                   d="m 0,0 c 0.068,-2.423 -1.085,-3.641 -3.531,-3.62 -2.178,0.018 -3.333,1.055 -3.366,3.275 -0.035,2.394 1.05,3.669 3.525,3.63 C -1.2,3.251 -0.037,2.211 0,0" /></g><g
                 id="g238"
                 transform="translate(199.4474,444.8647)"><path
                   id="path236"
                   style="fill:#d9d9d9;fill-opacity:1;fill-rule:nonzero;stroke:none"
                   d="M 0,0 C 1.963,-0.476 3.351,-1.618 3.438,-3.649 3.535,-5.931 2.155,-7.541 -0.062,-7.584 -1.931,-7.62 -3.531,-6.599 -3.426,-4.22 -3.325,-1.943 -2.143,-0.608 0,0" /></g><g
                 id="g242"
                 transform="translate(37.8693,268.0342)"><path
                   id="path240"
                   style="fill:#d9d9d9;fill-opacity:1;fill-rule:nonzero;stroke:none"
                   d="M 0,0 C -2.005,0.313 -3.657,1.408 -3.592,3.436 -3.521,5.679 -1.823,7.043 0.485,6.823 2.474,6.633 4.033,5.338 3.833,3.231 3.644,1.23 2.094,0.147 0,0" /></g><g
                 id="g246"
                 transform="translate(61.0033,670.1427)"><path
                   id="path244"
                   style="fill:#d9d9d9;fill-opacity:1;fill-rule:nonzero;stroke:none"
                   d="m 0,0 c -0.372,-2.287 -1.469,-3.932 -3.505,-3.867 -2.261,0.073 -3.613,1.784 -3.376,4.089 0.203,1.974 1.49,3.536 3.612,3.35 C -1.211,3.393 -0.303,1.72 0,0" /></g><g
                 id="g250"
                 transform="translate(132.5062,685.0059)"><path
                   id="path248"
                   style="fill:#d9d9d9;fill-opacity:1;fill-rule:nonzero;stroke:none"
                   d="m 0,0 c -2.46,0.014 -3.57,1.276 -3.465,3.697 0.083,1.907 0.931,3.195 2.951,3.146 C 1.755,6.786 3.176,5.452 3.366,3.221 3.56,0.947 2.12,0.032 0,0" /></g></g></g></g></g></g></g></svg>